<?xml version="1.0" encoding="UTF-8"?>
<!DOCTYPE svg  PUBLIC '-//W3C//DTD SVG 1.1//EN'  'http://www.w3.org/Graphics/SVG/1.1/DTD/svg11.dtd'>
<svg version="1.1" xmlns="http://www.w3.org/2000/svg">
<defs>
<font id="DINNextLTPro-Heavy" horiz-adv-x="562">
<font-face font-family="o" font-weight="750" ascent="750" bbox="-56.0833 -205 898.364 931" cap-height="680" descent="-250" panose-1="2 11 9 3 2 2 3 5 2 3" underline-position="-100" underline-thickness="50" unicode-range="U+0020-00FE" units-per-em="1000" x-height="487"/>
<missing-glyph/>
<glyph glyph-name="space" horiz-adv-x="238" unicode=" "/>
<glyph d="M106 210q-9 2 -10 10l-24 450q2 9 10 10h153q9 -2 10 -10l-24 -450q-2 -9 -10 -10h-105zM80 10v126q2 9 10 10h138q9 -2 10 -10v-126q-2 -9 -10 -10h-138q-9 2 -10 10z" glyph-name="exclam" horiz-adv-x="317" unicode="!"/>
<glyph d="M243 455q-9 2 -10 10v205q2 9 10 10h97q9 -2 10 -10v-205q-2 -9 -10 -10h-97zM66 455q-9 2 -10 10v205q2 9 10 10h97q9 -2 10 -10v-205q-2 -9 -10 -10h-97z" glyph-name="quotedbl" horiz-adv-x="406" unicode='"'/>
<glyph d="M71 10l23 170h-62q-9 2 -10 10v100q2 9 10 10h79l12 89h-65q-9 2 -10 10v100q2 9 10 10h81l22 161q3 9 11 10h116q9 -2 9 -10l-22 -161h93l22 161q3 9 11 10h116q9 -2 9 -10l-22 -161h63q9 -2 10 -10v-100q-2 -9 -10 -10h-80l-12 -89h66q9 -2 10 -10v-100q-2 -9 -10 -10 h-82l-23 -170q-3 -9 -11 -10h-116q-9 2 -9 10l23 170h-93l-23 -170q-3 -9 -11 -10h-116q-9 2 -9 10zM246 300h94l12 89h-94z" glyph-name="numbersign" horiz-adv-x="599" unicode="#"/>
<glyph d="M45 65q-7 8 -2 16l83 101q6 6 13 1q62 -49 127 -50q72 0 82 54q2 9 2 17q0 49 -66 59q-2 1 -4 1l-21 3q-139 18 -184 117q-17 39 -17 86q0 111 82 175q41 31 95 42v69q2 9 10 10h83q9 -2 10 -10v-67q82 -11 150 -55q8 -7 2 -16l-70 -101q-7 -7 -14 -3q-53 33 -106 33 q-54 0 -70 -40q-4 -11 -4 -23q0 -43 54 -56q9 -2 17 -3l24 -3q174 -24 195 -168q2 -19 2 -37q0 -125 -93 -187q-39 -25 -87 -35v-71q-2 -9 -10 -10h-83q-9 2 -10 10v66q-110 11 -190 75z" glyph-name="dollar" unicode="$"/>
<glyph d="M167 -2l395 684q7 10 16 10h101q8 -1 5 -10l-395 -684q-7 -10 -16 -10h-102q-8 1 -4 10zM206 330q-94 0 -129 68q-4 9 -7 17q-10 33 -10 94q0 63 10 94q24 71 107 83q14 2 29 2q93 0 127 -66q5 -10 8 -19q11 -31 11 -94q0 -64 -11 -94q-22 -69 -103 -82q-16 -3 -32 -3z M206 415q20 1 28 19q3 13 3 75q0 65 -3 75q-9 18 -28 19q-21 -1 -28 -19q-3 -13 -3 -75q0 -65 3 -75q7 -18 28 -19zM508 77q-10 33 -10 94q0 63 10 94q25 74 114 84q11 1 22 1q93 0 127 -66q5 -10 8 -19q11 -36 11 -94q0 -60 -11 -94q-22 -69 -103 -82q-16 -3 -32 -3 q-98 0 -131 73q-3 6 -5 12zM616 96q7 -18 28 -19q21 1 27 19q4 12 4 75q0 64 -4 75q-7 17 -27 18q-22 -1 -28 -18q-3 -14 -3 -75q0 -65 3 -75z" glyph-name="percent" horiz-adv-x="850" unicode="%"/>
<glyph d="M45 174q0 84 74 156q21 21 49 43q-62 81 -69 132q-1 10 -1 20q0 86 73 134q51 33 117 33q107 0 159 -72q30 -42 30 -94q0 -65 -58 -123q-22 -22 -54 -47l72 -90l66 74q7 7 14 1l81 -71q7 -7 2 -14l-80 -93l11 -13q16 -19 38 -19h15q9 -2 10 -10v-111q-2 -9 -10 -10h-51 q-57 0 -90 31q-12 11 -24 26q-75 -66 -163 -69h-11q-128 0 -177 89q-23 43 -23 97zM283 458q47 43 50 72q0 35 -29 44q-7 2 -14 2q-33 0 -42 -31q-2 -8 -2 -15q1 -25 37 -72zM197 187q0 -47 42 -60q10 -3 20 -3q37 0 78 36l-87 110q-52 -44 -53 -83z" glyph-name="ampersand" horiz-adv-x="647" unicode="&amp;"/>
<glyph d="M66 455q-9 2 -10 10v205q2 9 10 10h97q9 -2 10 -10v-205q-2 -9 -10 -10h-97z" glyph-name="quotesingle" horiz-adv-x="229" unicode="'"/>
<glyph d="M181 -74q-125 173 -129 389v13q0 209 115 381q7 11 14 21q9 9 15 10h96q9 -2 7 -10q-89 -188 -89 -402q0 -213 86 -397q2 -3 3 -5q3 -9 -7 -10h-96q-7 1 -15 10z" glyph-name="parenleft" horiz-adv-x="329" unicode="("/>
<glyph d="M30 -74q88 189 89 402q0 215 -89 402q-3 9 7 10h96q7 -1 15 -10q122 -168 129 -379v-23q0 -214 -120 -389q-5 -7 -9 -13q-9 -9 -15 -10h-96q-9 2 -7 10z" glyph-name="parenright" horiz-adv-x="329" unicode=")"/>
<glyph d="M167 355q-9 2 -10 10l1 78l-67 -40q-8 -4 -14 4l-34 59q-3 8 4 13l69 38l-69 39q-7 6 -4 13l34 59q6 8 14 4l67 -41l-1 79q2 9 10 10h68q9 -2 10 -10l-2 -79l69 41q8 3 13 -4l34 -59q3 -8 -4 -13l-69 -39l69 -38q7 -6 4 -13l-34 -59q-6 -7 -13 -4l-69 41l2 -79 q-2 -9 -10 -10h-68z" glyph-name="asterisk" horiz-adv-x="402" unicode="*"/>
<glyph d="M57 206q-9 2 -10 10v120q2 9 10 10h146q6 0 6 6v148q2 9 10 10h124q9 -2 10 -10v-148q0 -6 6 -6h146q9 -2 10 -10v-120q-2 -9 -10 -10h-146q-6 0 -6 -6v-148q-2 -9 -10 -10h-124q-9 2 -10 10v148q0 6 -6 6h-146z" glyph-name="plus" unicode="+"/>
<glyph d="M52 -94v242q2 9 10 10h131q9 -2 10 -10v-131q-1 -14 -9 -21l-114 -94q-10 -7 -16 -7q-11 2 -12 11z" glyph-name="comma" horiz-adv-x="255" unicode=","/>
<glyph d="M49 193q-9 2 -10 10v125q2 9 10 10h301q9 -2 10 -10v-125q-2 -9 -10 -10h-301z" glyph-name="hyphen" horiz-adv-x="399" unicode="-"/>
<glyph d="M52 10v138q2 9 10 10h139q9 -2 10 -10v-138q-2 -9 -10 -10h-139q-9 2 -10 10z" glyph-name="period" horiz-adv-x="263" unicode="."/>
<glyph d="M36 -2l212 684q5 9 13 10h143q9 -2 7 -10l-212 -684q-5 -9 -13 -10h-143q-9 2 -7 10z" glyph-name="slash" horiz-adv-x="446" unicode="/"/>
<glyph d="M64 134q-15 44 -16 158v48q0 154 14 199q1 4 2 7q39 120 164 142q26 4 53 4q154 0 209 -124q5 -11 9 -22q14 -46 15 -171v-35q0 -154 -14 -201q0 -3 -1 -5q-43 -129 -182 -144q-18 -2 -36 -2q-147 0 -204 113q-8 16 -13 33zM226 163q13 -36 55 -37q44 1 56 37q7 25 7 177 q0 155 -7 177q-13 36 -56 37q-43 -1 -55 -37q-8 -21 -8 -153v-24q0 -156 8 -177z" glyph-name="zero" unicode="0"/>
<glyph d="M238 10v488h-2l-115 -76q-10 -5 -12 6v146q1 9 7 14l122 86q8 6 18 6h139q9 -2 10 -10v-660q-2 -9 -10 -10h-147q-9 2 -10 10z" glyph-name="one" unicode="1"/>
<glyph d="M58 10v112q1 8 5 14l239 268q37 42 37 84q0 52 -41 63q-10 3 -20 3q-60 0 -68 -74v-2q-2 -9 -11 -9l-132 20q-9 3 -8 12q5 97 86 151q59 40 140 40q118 0 180 -79q39 -51 39 -119q-1 -94 -74 -172l-162 -180v-2h226q9 -2 10 -10v-120q-2 -9 -10 -10h-426q-9 2 -10 10z " glyph-name="two" unicode="2"/>
<glyph d="M49 156q0 10 8 12l133 22q10 0 12 -8q18 -55 75 -56q53 0 66 48q4 13 4 27q0 64 -57 77q-12 3 -24 3h-27q-9 2 -10 10v116q2 9 10 10h25q57 0 69 49q2 11 2 21q0 52 -43 64q-10 3 -21 3q-51 -2 -65 -55q-3 -8 -11 -8l-133 21q-9 3 -8 12q19 103 113 146q50 22 113 22 q131 0 189 -84q31 -46 31 -104q-1 -89 -77 -140v-2q75 -39 87 -133q2 -15 2 -31q0 -109 -85 -168q-62 -42 -146 -42q-134 0 -197 85q-27 37 -35 83z" glyph-name="three" unicode="3"/>
<glyph d="M44 95q-9 2 -10 10v128q0 8 2 11l187 428q5 7 14 8h157q10 -2 7 -10l-189 -429v-2h96q6 0 6 6v120q2 9 10 10h140q9 -2 10 -10v-120q2 -5 5 -6h39q9 -2 10 -10v-124q-2 -9 -10 -10h-38q-6 0 -6 -6v-79q-2 -9 -10 -10h-140q-9 2 -10 10v79q0 6 -6 6h-264z" glyph-name="four" unicode="4"/>
<glyph d="M65 149q1 9 9 12l130 21q9 0 13 -9q18 -46 66 -47q43 1 57 39q7 19 7 57q0 40 -7 58q-14 38 -58 39q-39 -1 -55 -32q-6 -9 -14 -10h-128q-9 2 -10 10v383q2 9 10 10h396q9 -2 10 -10v-120q-2 -9 -10 -10h-258q-6 0 -6 -6v-114h2q38 35 105 35q136 -1 173 -114 q15 -48 15 -119q0 -57 -15 -102q-34 -106 -157 -127q-27 -5 -56 -5q-127 0 -186 79q-27 37 -33 82z" glyph-name="five" unicode="5"/>
<glyph d="M43 207q1 80 54 183l151 283q6 7 12 7h158q10 -2 7 -11l-136 -254l1 -1q16 5 34 5q99 0 155 -76q41 -56 41 -134q0 -119 -92 -180q-62 -41 -147 -41q-126 0 -193 82q-45 58 -45 137zM204 206q0 -54 44 -74q16 -6 33 -6q53 0 72 46q6 16 6 34q0 54 -44 74q-16 7 -34 7 q-51 0 -70 -45q-7 -17 -7 -36z" glyph-name="six" unicode="6"/>
<glyph d="M127 11l210 521v3h-117q-6 0 -6 -6v-64q-2 -9 -10 -10h-136q-9 2 -10 10v205q2 9 10 10h433q9 -2 10 -10v-132q0 -5 -2 -10l-207 -518q-5 -10 -14 -10h-153q-10 2 -8 11z" glyph-name="seven" unicode="7"/>
<glyph d="M41 199q1 99 78 154v2q-56 43 -62 118q-1 9 -1 17q0 96 73 154q62 48 152 48q124 0 187 -85q38 -52 38 -117q0 -82 -56 -130q-4 -3 -6 -5v-2q76 -55 77 -154q0 -111 -91 -170q-64 -41 -149 -41q-123 0 -191 76q-49 56 -49 135zM281 420q45 0 61 39q6 14 6 28q0 43 -36 60 q-15 7 -31 7q-44 0 -61 -39q-5 -14 -5 -28q0 -44 37 -61q14 -6 29 -6zM202 205q0 -51 43 -71q17 -8 36 -8q51 0 71 43q8 17 8 36q0 52 -43 72q-17 8 -36 8q-51 0 -71 -43q-8 -18 -8 -37z" glyph-name="eight" unicode="8"/>
<glyph d="M137 11l136 254l-2 1q-13 -5 -33 -5q-99 0 -155 76q-41 56 -41 134q0 119 92 180q62 41 147 41q126 0 193 -82q45 -58 45 -137q-1 -80 -54 -183l-151 -283q-6 -7 -13 -7h-157q-10 2 -7 11zM281 393q51 0 70 45q7 17 7 36q0 54 -44 74q-16 6 -33 6q-53 0 -72 -46 q-6 -16 -6 -34q0 -54 44 -74q16 -7 34 -7z" glyph-name="nine" unicode="9"/>
<glyph d="M70 329q-9 2 -10 10v138q2 9 10 10h138q9 -2 10 -10v-138q-2 -9 -10 -10h-138zM60 10v138q2 9 10 10h138q9 -2 10 -10v-138q-2 -9 -10 -10h-138q-9 2 -10 10z" glyph-name="colon" horiz-adv-x="278" unicode=":"/>
<glyph d="M70 329q-9 2 -10 10v138q2 9 10 10h138q9 -2 10 -10v-138q-2 -9 -10 -10h-138zM64 -94v242q2 9 10 10h131q9 -2 10 -10v-131q-1 -13 -9 -20l-115 -95q-9 -7 -16 -7q-10 2 -11 11z" glyph-name="semicolon" horiz-adv-x="278" unicode=";"/>
<glyph d="M58 211q-9 5 -10 14v102q1 10 10 14l448 167q9 1 10 -6v-129q-2 -9 -10 -13l-243 -83v-2l243 -83q10 -5 10 -13v-129q-2 -8 -10 -6z" glyph-name="less" unicode="&lt;"/>
<glyph d="M57 316q-9 2 -10 10v120q2 9 10 10h448q9 -2 10 -10v-120q-2 -9 -10 -10h-448zM57 96q-9 2 -10 10v120q2 9 10 10h448q9 -2 10 -10v-120q-2 -9 -10 -10h-448z" glyph-name="equal" unicode="="/>
<glyph d="M47 50v129q2 9 10 13l244 83v2l-244 83q-9 6 -10 13v129q2 8 10 6l448 -167q9 -5 10 -14v-102q-1 -10 -10 -14l-448 -167q-9 -1 -10 6z" glyph-name="greater" unicode="&gt;"/>
<glyph d="M165 210q-9 2 -10 10v41q1 49 31 84l60 71q43 48 44 80q0 40 -34 52q-11 4 -22 4q-52 -2 -65 -61q-3 -8 -11 -8l-129 18q-9 3 -8 11q14 108 105 155q49 25 112 25q113 0 175 -75q40 -50 40 -113q0 -69 -56 -132q-6 -7 -12 -13l-53 -64q-21 -26 -21 -58v-17q-2 -9 -10 -10 h-136zM155 10v126q2 9 10 10h138q9 -2 10 -10v-126q-2 -9 -10 -10h-138q-9 2 -10 10z" glyph-name="question" horiz-adv-x="483" unicode="?"/>
<glyph d="M41 262q0 196 126 312q117 106 298 106q196 0 314 -122q109 -114 109 -291q0 -132 -91 -188q-45 -27 -101 -27q-94 0 -134 58q-3 4 -5 8h-1q-32 -60 -116 -65q-10 -1 -20 -1q-112 1 -141 94q-14 42 -14 119q0 78 14 120q31 93 130 94q72 0 103 -44q3 -4 4 -6h1v30 q2 8 9 9h118q7 -2 8 -9v-237q0 -50 40 -56q4 -1 8 -1q58 2 59 102q0 161 -107 242q-76 57 -187 57q-161 0 -240 -113q-54 -78 -54 -191q0 -157 105 -238q76 -59 189 -59q107 0 198 50q9 4 14 -4l51 -74q3 -8 -3 -14q-109 -72 -260 -72q-196 0 -314 121q-110 114 -110 290z M405 203q15 -36 54 -37q41 1 53 37q5 17 5 62q0 48 -5 62q-13 37 -53 38q-40 -1 -54 -38q-5 -20 -5 -62t5 -62z" glyph-name="at" horiz-adv-x="931" unicode="@"/>
<glyph d="M10 10l235 660q5 9 13 10h163q9 -1 13 -10l230 -660q1 -9 -7 -10h-165q-9 1 -13 10l-32 105h-221l-32 -105q-5 -9 -13 -10h-164q-9 2 -7 10zM271 261h132l-63 212h-3z" glyph-name="A" horiz-adv-x="674" unicode="A"/>
<glyph d="M55 10v660q2 9 10 10h277q170 0 211 -113q11 -31 11 -68q-1 -102 -83 -146v-2q56 -21 82 -85q13 -33 13 -70q0 -142 -133 -182q-46 -14 -104 -14h-274q-9 2 -10 10zM237 407h71q80 2 81 70q-2 69 -81 70h-71q-6 0 -6 -6v-128q0 -6 6 -6zM231 139q0 -6 6 -6h80q82 2 83 77 q0 67 -66 75q-9 1 -17 1h-80q-6 0 -6 -6v-141z" glyph-name="B" horiz-adv-x="614" unicode="B"/>
<glyph d="M59 156q-19 59 -20 164v20q0 119 18 177q1 4 2 7q46 143 197 165q24 3 50 3q153 0 223 -112q12 -21 21 -43q3 -10 -5 -14l-133 -58q-10 -2 -14 6q-28 58 -77 63q-6 1 -12 1q-63 -1 -82 -59q-10 -32 -10 -136q0 -106 10 -136q20 -58 82 -59q56 0 85 56l4 8q6 9 14 6 l133 -58q8 -5 5 -14q-47 -122 -177 -149q-32 -6 -67 -6q-169 0 -233 132q-8 18 -14 36z" glyph-name="C" horiz-adv-x="574" unicode="C"/>
<glyph d="M55 10v660q2 9 10 10h263q176 0 234 -132q4 -12 8 -23q20 -71 20 -185q0 -123 -20 -185q-45 -140 -209 -154q-16 -1 -33 -1h-263q-9 2 -10 10zM231 162q0 -6 6 -6h53q79 0 104 46q5 9 8 19q10 35 10 119q0 86 -10 119q-18 55 -81 63q-15 2 -31 2h-53q-6 0 -6 -6v-356z " glyph-name="D" horiz-adv-x="631" unicode="D"/>
<glyph d="M55 10v660q2 9 10 10h445q9 -2 10 -10v-129q-2 -9 -10 -10h-273q-6 0 -6 -6v-103q0 -6 6 -6h224q9 -2 10 -10v-126q-2 -9 -10 -10h-224q-6 0 -6 -6v-109q0 -6 6 -6h273q9 -2 10 -10v-129q-2 -9 -10 -10h-445q-9 2 -10 10z" glyph-name="E" horiz-adv-x="557" unicode="E"/>
<glyph d="M55 10v660q2 9 10 10h445q9 -2 10 -10v-129q-2 -9 -10 -10h-273q-6 0 -6 -6v-112q0 -6 6 -6h224q9 -2 10 -10v-126q-2 -9 -10 -10h-224q-6 0 -6 -6v-245q-2 -9 -10 -10h-156q-9 2 -10 10z" glyph-name="F" horiz-adv-x="552" unicode="F"/>
<glyph d="M59 155q-19 63 -20 170v15q0 117 18 177q1 5 2 8q38 117 160 154q45 13 96 13q155 0 227 -108q12 -18 20 -37q3 -11 -5 -16l-130 -55q-9 -3 -15 4q-41 52 -97 55q-69 -1 -88 -60q-10 -32 -10 -135q0 -102 10 -135q22 -59 93 -60q66 0 87 46q2 4 3 8q6 19 6 44q0 6 -6 6 h-74q-9 2 -10 10v113q2 9 10 10h243q9 -2 10 -10v-52q0 -104 -18 -158q-39 -121 -157 -159q-47 -15 -99 -15q-146 0 -219 96q-24 32 -37 71z" glyph-name="G" horiz-adv-x="628" unicode="G"/>
<glyph d="M55 10v660q2 9 10 10h156q9 -2 10 -10v-241q0 -6 6 -6h185q6 0 6 6v241q2 9 10 10h156q9 -2 10 -10v-660q-2 -9 -10 -10h-156q-9 2 -10 10v251q0 6 -6 6h-185q-6 0 -6 -6v-251q-2 -9 -10 -10h-156q-9 2 -10 10z" glyph-name="H" horiz-adv-x="659" unicode="H"/>
<glyph d="M55 10v660q2 9 10 10h156q9 -2 10 -10v-660q-2 -9 -10 -10h-156q-9 2 -10 10z" glyph-name="I" horiz-adv-x="286" unicode="I"/>
<glyph d="M18 81q-4 8 1 14l111 88q8 5 14 -2q33 -35 75 -36q85 2 86 100v425q2 9 10 10h156q9 -2 10 -10v-411q0 -212 -165 -259q-43 -12 -95 -12q-103 0 -172 58q-19 17 -31 35z" glyph-name="J" horiz-adv-x="534" unicode="J"/>
<glyph d="M55 10v660q2 9 10 10h156q9 -2 10 -10v-266l195 267q9 9 17 9h176q11 0 7 -10q-1 -2 -1 -3l-203 -263l215 -393q4 -9 -6 -11h-179q-12 1 -16 9l-132 256l-73 -97v-158q-2 -9 -10 -10h-156q-9 2 -10 10z" glyph-name="K" horiz-adv-x="657" unicode="K"/>
<glyph d="M55 10v660q2 9 10 10h156q9 -2 10 -10v-508q0 -6 6 -6h288q9 -2 10 -10v-136q-2 -9 -10 -10h-460q-9 2 -10 10z" glyph-name="L" horiz-adv-x="554" unicode="L"/>
<glyph d="M55 10v660q2 9 10 10h148q13 -1 17 -10l157 -355h4l153 355q5 10 17 10h146q9 -2 10 -10v-660q-2 -9 -10 -10h-139q-9 2 -10 10v350h-5l-109 -254q-7 -12 -19 -13h-78q-11 2 -19 13l-109 254h-5v-350q-2 -9 -10 -10h-139q-9 2 -10 10z" glyph-name="M" horiz-adv-x="772" unicode="M"/>
<glyph d="M55 10v660q2 9 10 10h147q12 -1 17 -10l205 -385h4v385q2 9 10 10h140q9 -2 10 -10v-660q-2 -9 -10 -10h-147q-12 1 -17 10l-203 384h-6v-384q-2 -9 -10 -10h-140q-9 2 -10 10z" glyph-name="N" horiz-adv-x="653" unicode="N"/>
<glyph d="M314 -12q-144 0 -217 95q-25 32 -38 72q-19 63 -20 170v15q0 117 18 177q1 5 2 8q38 116 158 153q46 14 97 14q144 0 217 -95q25 -32 38 -72q19 -59 20 -161v-24q0 -118 -16 -173l-4 -12q-38 -116 -158 -153q-46 -14 -97 -14zM314 145q68 1 87 60q10 30 10 135 q0 106 -10 135q-20 59 -87 60q-68 -1 -87 -60q-10 -30 -10 -135q0 -106 10 -135q20 -59 87 -60z" glyph-name="O" horiz-adv-x="628" unicode="O"/>
<glyph d="M221 0h-156q-9 2 -10 10v660q2 9 10 10h272q160 0 222 -106q30 -52 30 -120q0 -124 -93 -185q-64 -42 -159 -42h-100q-6 0 -6 -6v-211q-2 -9 -10 -10zM327 376q67 0 82 52q4 13 4 26q0 59 -56 74q-14 3 -30 3h-90q-6 0 -6 -6v-143q0 -6 6 -6h90z" glyph-name="P" horiz-adv-x="612" unicode="P"/>
<glyph d="M636 46l-105 -99q-9 -5 -15 0l-66 70q-62 -29 -136 -29q-147 0 -220 98q-23 31 -35 69q-19 59 -20 161v24q0 118 16 173l4 12q38 119 161 154q44 13 94 13q144 0 217 -95q25 -32 38 -72q19 -63 20 -170v-15q0 -117 -18 -177q-1 -5 -2 -8q-4 -12 -7 -18l74 -76q6 -8 0 -15 zM314 144q65 0 86 57q1 3 1 4q10 30 10 135q0 106 -10 135q-23 59 -87 61q-67 -1 -88 -61q-9 -31 -9 -135q0 -105 9 -135q22 -60 88 -61z" glyph-name="Q" horiz-adv-x="628" unicode="Q"/>
<glyph d="M593 0h-173q-11 1 -15 10l-103 232h-65q-6 0 -6 -6v-226q-2 -9 -10 -10h-156q-9 2 -10 10v660q2 9 10 10h277q146 0 210 -96q35 -53 35 -123q0 -118 -89 -177q-12 -7 -23 -13l125 -259q3 -10 -7 -12zM331 387q63 0 77 49q3 11 3 23q0 54 -51 68q-14 4 -29 4h-94 q-6 0 -6 -6v-132q0 -6 6 -6h94z" glyph-name="R" horiz-adv-x="629" unicode="R"/>
<glyph d="M300 -12q-121 0 -223 60q-31 18 -51 37q-8 8 -1 16l90 106q7 7 14 1q72 -63 161 -68h12q80 0 94 48q2 8 2 16q0 36 -50 50q-16 4 -36 7l-36 5q-222 40 -227 214q0 114 94 172q66 40 159 40q140 0 239 -72q3 -2 4 -3q7 -7 2 -15l-75 -109q-7 -7 -14 -3q-77 51 -153 51 q-64 0 -74 -44q-1 -7 -1 -13q0 -41 64 -53q11 -3 23 -4l36 -5q192 -27 220 -162q5 -25 5 -54q0 -118 -101 -177q-71 -41 -177 -41z" glyph-name="S" horiz-adv-x="605" unicode="S"/>
<glyph d="M361 0h-156h-3q-3 1 -5 3q-2 3 -2 4v3v508q-1 4 -5 6h-1h-167h-3q-3 1 -4 2l-1 1l-1 1q-1 3 -1 6v136q1 8 7 10h3h522q4 -1 7 -3q1 -1 1 -2q2 -3 2 -5v-136q-1 -5 -3 -8q-3 -2 -5 -2h-2h-167q-3 -1 -4 -1t-1 -1l-1 -1v-3v-508v-3q-2 -4 -5 -6q-2 -1 -5 -1z" glyph-name="T" horiz-adv-x="566" unicode="T"/>
<glyph d="M324 -12q-169 0 -236 120q-35 65 -35 155v407q2 9 10 10h156q9 -2 10 -10v-418q0 -79 58 -101q18 -6 37 -6q72 0 90 69q4 18 4 38v418q2 9 10 10h156q9 -2 10 -10v-407q0 -175 -124 -242q-62 -33 -146 -33z" glyph-name="U" horiz-adv-x="647" unicode="U"/>
<glyph d="M390 0h-151q-10 2 -13 10l-217 659q-1 10 9 11h164q10 -2 13 -10l121 -410h3l117 410q4 9 13 10h163q10 -2 8 -11l-217 -659q-4 -9 -13 -10z" glyph-name="V" horiz-adv-x="629" unicode="V"/>
<glyph d="M700 0h-125q-10 2 -13 10l-107 380h-2l-108 -380q-4 -9 -13 -10h-125q-10 2 -13 10l-185 660q0 9 8 10h164q11 -1 13 -10l88 -396h2l106 396q4 9 13 10h103q10 -2 13 -10l109 -396h2l85 396q3 9 12 10h164q9 -2 7 -10l-184 -660q-4 -9 -14 -10z" glyph-name="W" horiz-adv-x="907" unicode="W"/>
<glyph d="M600 0h-168q-11 1 -17 10l-107 183h-2l-107 -183q-7 -10 -17 -10h-168q-9 2 -6 11l204 340l-191 318q-3 10 6 11h168q12 -1 17 -10l94 -161h2l94 161q7 10 17 10h168q10 0 8 -8q-1 -2 -2 -3l-190 -318l203 -340q4 -10 -6 -11z" glyph-name="X" horiz-adv-x="616" unicode="X"/>
<glyph d="M379 0h-156q-9 2 -10 10v253l-206 406q-1 10 8 11h157q10 -1 16 -10l114 -232h3l112 232q5 9 16 10h154q10 -2 8 -11l-206 -406v-253q-2 -9 -10 -10z" glyph-name="Y" horiz-adv-x="602" unicode="Y"/>
<glyph d="M516 0h-471q-9 2 -10 10v134q1 6 3 10l282 367v3h-264q-9 2 -10 10v136q2 9 10 10h460q9 -2 10 -10v-134q-1 -6 -3 -10l-282 -367v-3h275q9 -2 10 -10v-136q-2 -9 -10 -10z" glyph-name="Z" unicode="Z"/>
<glyph d="M277 -84h-213q-9 2 -10 10v804q2 9 10 10h213q9 -2 10 -10v-104q-2 -9 -10 -10h-73q-6 0 -6 -6v-564q0 -6 6 -6h73q9 -2 10 -10v-104q-2 -9 -10 -10z" glyph-name="bracketleft" horiz-adv-x="312" unicode="["/>
<glyph d="M404 -12h-143q-9 1 -13 10l-212 684q-1 9 7 10h143q9 -1 13 -10l212 -684q1 -9 -7 -10z" glyph-name="backslash" horiz-adv-x="446" unicode="\"/>
<glyph d="M248 -84h-213q-9 2 -10 10v104q2 9 10 10h73q6 0 6 6v564q0 6 -6 6h-73q-9 2 -10 10v104q2 9 10 10h213q9 -2 10 -10v-804q-2 -9 -10 -10z" glyph-name="bracketright" horiz-adv-x="312" unicode="]"/>
<glyph d="M511 243h-135q-10 1 -14 10l-80 224h-2l-80 -224q-4 -9 -13 -10h-135q-9 2 -7 10l167 417q6 9 14 10h111q9 -1 14 -10l166 -417q3 -9 -6 -10z" glyph-name="asciicircum" unicode="^"/>
<glyph d="M550 -169h-550v111h550v-111z" glyph-name="underscore" horiz-adv-x="550" unicode="_"/>
<glyph d="M359 546h-116q-10 1 -17 10l-103 136q-5 7 2 9q2 1 3 1h139q11 -1 17 -10l80 -136q3 -9 -5 -10z" glyph-name="grave" horiz-adv-x="489" unicode="`"/>
<glyph d="M472 0h-138q-9 2 -10 10v28h-1q-44 -50 -131 -50q-95 0 -136 65q-22 36 -22 85q0 113 113 147q42 13 94 13h77q6 0 6 6v13q0 36 -34 45q-22 6 -60 6q-65 0 -105 -28q-9 -4 -13 3l-52 92q-3 10 3 16q71 48 189 48q163 0 208 -79q22 -40 22 -103v-307q-2 -9 -10 -10z M248 108q75 1 76 52v30q0 6 -6 6h-59q-67 -1 -68 -46q2 -41 57 -42z" glyph-name="a" horiz-adv-x="532" unicode="a"/>
<glyph d="M347 -12q-87 1 -125 58h-1v-36q-2 -9 -10 -10h-148q-9 2 -10 10v660q2 9 10 10h148q9 -2 10 -10v-229h1q39 57 125 58q122 -1 161 -117q17 -56 17 -139t-17 -138q-40 -116 -161 -117zM288 126q45 1 60 41q7 24 7 76q0 55 -7 77q-16 40 -60 41q-45 -1 -59 -41 q-8 -23 -8 -77q0 -55 8 -76q14 -40 59 -41z" glyph-name="b" horiz-adv-x="557" unicode="b"/>
<glyph d="M263 -12q-132 0 -193 91q-15 24 -24 52q-14 40 -14 112q0 74 14 113q34 106 146 135q34 8 71 8q112 0 176 -73q16 -19 26 -39q2 -9 -4 -14l-112 -58q-11 -5 -15 3q-28 41 -66 43q-44 -1 -59 -42q-7 -22 -7 -76t7 -75q16 -41 59 -42q40 0 63 38q2 3 3 5q5 8 15 3l112 -58 q7 -6 4 -14q-37 -74 -125 -101q-37 -11 -77 -11z" glyph-name="c" horiz-adv-x="493" unicode="c"/>
<glyph d="M494 0h-148q-9 2 -10 10v36h-1q-39 -57 -125 -58q-122 1 -161 117q-17 56 -17 138q0 84 17 139q40 116 161 117q87 -1 125 -58h1v229q2 9 10 10h148q9 -2 10 -10v-660q-2 -9 -10 -10zM269 126q45 1 59 41q8 23 8 76q0 56 -8 77q-14 40 -59 41q-45 -1 -60 -41 q-7 -24 -7 -77q0 -54 7 -76q16 -40 60 -41z" glyph-name="d" horiz-adv-x="557" unicode="d"/>
<glyph d="M275 -12q-154 0 -212 107q-9 18 -15 36q-16 47 -16 112q0 67 15 113q35 107 147 135q34 8 71 8q153 0 208 -110q7 -15 12 -31q16 -49 16 -152q-2 -9 -11 -10h-289q-6 0 -6 -6q2 -14 4 -20q15 -48 82 -53h12q61 1 109 39q9 6 15 0l71 -73q7 -7 -1 -15q-84 -80 -212 -80z M201 298h132q6 0 6 6q0 20 -4 30q-15 43 -68 44q-53 -1 -68 -44q-4 -17 -4 -30q0 -6 6 -6z" glyph-name="e" horiz-adv-x="533" unicode="e"/>
<glyph d="M231 0h-147q-9 2 -10 10v351q0 6 -6 6h-28q-9 2 -10 10v100q2 9 10 10h28q6 0 6 6v14q0 124 81 157q39 16 99 16h66q9 -2 10 -10v-108q-2 -9 -10 -10h-29q-41 0 -48 -23q-2 -8 -2 -21v-15q0 -6 6 -6h71q9 -2 10 -10v-100q-2 -9 -10 -10h-71q-6 0 -6 -6v-351 q-2 -9 -10 -10z" glyph-name="f" horiz-adv-x="351" unicode="f"/>
<glyph d="M240 -192q-89 0 -159 48q-20 14 -32 28q-4 7 1 15l84 86q8 7 15 0q48 -39 96 -39q75 0 84 72q2 13 2 27v37h-1q-35 -56 -124 -57q-122 1 -160 117q-16 49 -16 120t16 120q40 116 160 117q89 -1 124 -58h1v36q2 9 10 10h148q9 -2 10 -10v-402q0 -224 -179 -260 q-37 -7 -80 -7zM265 162q45 1 59 43q7 26 7 57q0 33 -7 57q-15 41 -59 42q-44 -1 -58 -42q-7 -21 -7 -57q0 -38 7 -57q15 -42 58 -43z" glyph-name="g" horiz-adv-x="552" unicode="g"/>
<glyph d="M498 0h-148q-9 2 -10 10v278q-5 68 -59 71q-49 0 -58 -52q-2 -9 -2 -19v-278q-2 -9 -10 -10h-148q-9 2 -10 10v660q2 9 10 10h148q9 -2 10 -10v-228h1q40 56 125 57q121 0 152 -111q9 -32 9 -71v-307q-2 -9 -10 -10z" glyph-name="h" horiz-adv-x="558" unicode="h"/>
<glyph d="M211 550h-148q-9 2 -10 10v110q2 9 10 10h148q9 -2 10 -10v-110q-2 -9 -10 -10zM211 0h-148q-9 2 -10 10v467q2 9 10 10h148q9 -2 10 -10v-467q-2 -9 -10 -10z" glyph-name="i" horiz-adv-x="274" unicode="i"/>
<glyph d="M211 550h-148q-9 2 -10 10v110q2 9 10 10h148q9 -2 10 -10v-110q-2 -9 -10 -10zM22 -180h-38q-9 2 -10 10v118q2 9 10 10h15q40 0 49 21q5 12 5 34v464q2 9 10 10h148q9 -2 10 -10v-464q0 -167 -147 -189q-24 -4 -52 -4z" glyph-name="j" horiz-adv-x="274" unicode="j"/>
<glyph d="M525 0h-159q-11 1 -15 10l-95 188l-36 -48v-140q-2 -9 -10 -10h-147q-9 2 -10 10v660q2 9 10 10h147q9 -2 10 -10v-342l114 149q9 10 19 10h153q8 0 6 -7q-1 -2 -2 -3l-143 -166l163 -301q3 -8 -5 -10z" glyph-name="k" horiz-adv-x="540" unicode="k"/>
<glyph d="M281 -6h-61q-119 0 -152 72q-17 38 -17 99v505q2 9 10 10h148q9 -2 10 -10v-488q2 -47 41 -48h21q9 -2 10 -10v-120q-2 -9 -10 -10z" glyph-name="l" horiz-adv-x="315" unicode="l"/>
<glyph d="M785 0h-148q-9 2 -10 10v278q0 64 -50 70q-6 1 -10 1q-48 0 -57 -50q-2 -11 -2 -21v-278q-2 -9 -10 -10h-148q-9 2 -10 10v278q-5 68 -59 71q-49 0 -58 -52q-2 -9 -2 -19v-278q-2 -9 -10 -10h-148q-9 2 -10 10v467q2 9 10 10h148q9 -2 10 -10v-35h1q40 56 125 57 q87 -1 128 -60h1q56 60 149 60q131 0 162 -115q8 -31 8 -67v-307q-2 -9 -10 -10z" glyph-name="m" horiz-adv-x="845" unicode="m"/>
<glyph d="M498 0h-148q-9 2 -10 10v278q-5 68 -59 71q-49 0 -58 -52q-2 -9 -2 -19v-278q-2 -9 -10 -10h-148q-9 2 -10 10v467q2 9 10 10h148q9 -2 10 -10v-35h1q40 56 125 57q121 0 152 -111q9 -32 9 -71v-307q-2 -9 -10 -10z" glyph-name="n" horiz-adv-x="558" unicode="n"/>
<glyph d="M269 -12q-134 0 -196 88q-17 25 -26 53q-15 50 -15 114q0 66 15 115q33 103 146 132q36 9 76 9q137 0 198 -92q15 -23 24 -49q15 -50 15 -115t-15 -114q-35 -106 -151 -133q-34 -8 -71 -8zM269 126q45 1 60 41q7 27 7 76q0 52 -7 77q-16 40 -60 41q-45 -1 -60 -41 q-7 -27 -7 -77q0 -51 7 -76q16 -40 60 -41z" glyph-name="o" horiz-adv-x="538" unicode="o"/>
<glyph d="M211 -180h-148q-9 2 -10 10v647q2 9 10 10h148q9 -2 10 -10v-36h1q39 57 125 58q122 -1 161 -117q17 -56 17 -139t-17 -138q-40 -116 -161 -117q-87 1 -125 58h-1v-216q-2 -9 -10 -10zM288 126q45 1 60 41q7 24 7 76q0 55 -7 77q-16 40 -60 41q-45 -1 -59 -41 q-8 -23 -8 -77q0 -55 8 -76q14 -40 59 -41z" glyph-name="p" horiz-adv-x="557" unicode="p"/>
<glyph d="M494 -180h-148q-9 2 -10 10v216h-1q-39 -57 -125 -58q-122 1 -161 117q-17 56 -17 138q0 84 17 139q40 116 161 117q87 -1 125 -58h1v36q2 9 10 10h148q9 -2 10 -10v-647q-2 -9 -10 -10zM269 126q45 1 59 41q8 23 8 76q0 56 -8 77q-14 40 -59 41q-45 -1 -60 -41 q-7 -24 -7 -77q0 -54 7 -76q16 -40 60 -41z" glyph-name="q" horiz-adv-x="557" unicode="q"/>
<glyph d="M211 0h-148q-9 2 -10 10v467q2 9 10 10h148q9 -2 10 -10v-43h1q36 64 126 65q43 -1 67 -19q7 -5 5 -13l-57 -141q-6 -5 -14 -1q-38 23 -71 19q-56 -6 -57 -85v-249q-2 -9 -10 -10z" glyph-name="r" horiz-adv-x="429" unicode="r"/>
<glyph d="M255 -12q-143 1 -232 75q-6 8 -1 14l71 85q7 5 14 2q79 -52 158 -52q61 1 62 35q0 19 -26 26q-14 3 -35 6l-54 5q-162 28 -168 155q0 96 90 137q51 23 120 23q128 0 210 -61q6 -7 2 -15l-63 -80q-6 -7 -15 -3q-63 38 -136 38q-50 -1 -51 -30q0 -19 26 -25q12 -3 30 -5 l54 -6q174 -19 173 -154q-1 -101 -97 -145q-55 -25 -132 -25z" glyph-name="s" horiz-adv-x="512" unicode="s"/>
<glyph d="M299 -6h-56q-122 0 -157 73q-20 42 -20 111v183q0 6 -6 6h-28q-9 2 -10 10v100q2 9 10 10h28q6 0 6 6v127q2 9 10 10h146q9 -2 10 -10v-127q0 -6 6 -6h61q9 -2 10 -10v-100q-2 -9 -10 -10h-61q-6 0 -6 -6v-176q0 -43 26 -49q9 -2 19 -2h22q9 -2 10 -10v-120 q-2 -9 -10 -10z" glyph-name="t" horiz-adv-x="341" unicode="t"/>
<glyph d="M492 0h-148q-9 2 -10 10v35h-1q-43 -56 -124 -57q-123 0 -152 115q-8 31 -8 67v307q2 9 10 10h148q9 -2 10 -10v-278q0 -63 48 -70q6 -1 11 -1q51 0 57 57q1 7 1 14v278q2 9 10 10h148q9 -2 10 -10v-467q-2 -9 -10 -10z" glyph-name="u" horiz-adv-x="555" unicode="u"/>
<glyph d="M335 0h-139q-8 1 -12 10l-174 467q-1 9 8 10h154q11 -1 14 -10l81 -260h2l78 260q4 9 14 10h153q9 0 9 -7q-1 -2 -1 -3l-174 -467q-5 -9 -13 -10z" glyph-name="v" horiz-adv-x="532" unicode="v"/>
<glyph d="M591 0h-116q-9 2 -12 10l-75 250h-2l-76 -250q-4 -9 -12 -10h-116q-9 2 -12 10l-158 466q-1 10 8 11h149q11 -1 14 -10l67 -257h2l75 257q4 9 13 10h95q11 -1 14 -10l75 -257h2l63 257q4 9 15 10h149q9 -2 7 -11l-157 -466q-4 -9 -12 -10z" glyph-name="w" horiz-adv-x="772" unicode="w"/>
<glyph d="M515 0h-159q-10 1 -16 9l-73 115h-1l-73 -115q-7 -9 -16 -9h-158q-9 1 -6 10l163 242l-151 225q-3 9 7 10h159q11 -1 16 -9l60 -97h1l61 97q7 8 16 9h157q10 -1 7 -10l-151 -225l164 -242q3 -8 -7 -10z" glyph-name="x" horiz-adv-x="535" unicode="x"/>
<glyph d="M133 -180h-37q-9 2 -10 10v118q2 9 10 10h25q44 0 58 35l2 6l11 31l-183 447q-2 8 7 10h157q8 -1 12 -10l84 -244h2l78 244q5 9 13 10h153q9 -1 7 -10l-211 -532q-34 -87 -90 -111q-34 -14 -88 -14z" glyph-name="y" horiz-adv-x="531" unicode="y"/>
<glyph d="M446 0h-396q-9 2 -10 10v108q1 6 3 10l215 223v3h-197q-9 2 -10 10v113q2 9 10 10h385q9 -2 10 -10v-113q-1 -6 -3 -10l-214 -218v-3h207q9 -2 10 -10v-113q-2 -9 -10 -10z" glyph-name="z" horiz-adv-x="494" unicode="z"/>
<glyph d="M330 -84h-74q-132 2 -133 126v138q-8 81 -69 85q-9 2 -10 10v109q2 9 10 10q62 0 68 65q1 9 1 19v136q2 125 133 126h74q9 -2 10 -10v-104q-2 -9 -10 -10h-24q-41 -2 -42 -44v-113q0 -84 -43 -114q-13 -9 -29 -15v-1q54 -21 67 -74q5 -23 5 -55v-116q2 -43 42 -44h24 q9 -2 10 -10v-104q-2 -9 -10 -10z" glyph-name="braceleft" horiz-adv-x="367" unicode="{"/>
<glyph d="M231 -84h-125q-9 2 -10 10v804q2 9 10 10h125q9 -2 10 -10v-804q-2 -9 -10 -10z" glyph-name="bar" horiz-adv-x="337" unicode="|"/>
<glyph d="M111 -84h-74q-9 2 -10 10v104q2 9 10 10h24q41 2 42 44v116q0 84 43 114q13 9 29 15v1q-54 21 -67 74q-5 23 -5 55v113q-2 43 -42 44h-24q-9 2 -10 10v104q2 9 10 10h74q132 -2 133 -126v-136q0 -77 56 -83q7 -1 13 -1q9 -2 10 -10v-109q-2 -9 -10 -10q-62 0 -68 -68 q-1 -8 -1 -17v-138q-2 -125 -133 -126z" glyph-name="braceright" horiz-adv-x="367" unicode="}"/>
<glyph d="M370 183q-50 0 -102 32q-40 25 -63 25q-37 -1 -63 -46q-6 -8 -14 -3l-81 51q-7 5 -4 14q36 79 103 104q23 8 46 8q51 -1 102 -33q42 -25 64 -25q36 1 62 46q6 8 14 4l82 -52q7 -6 3 -14q-33 -76 -100 -102q-25 -9 -49 -9z" glyph-name="asciitilde" unicode="~"/>
<glyph glyph-name="uni00A0" horiz-adv-x="238" unicode=" "/>
<glyph d="M211 277q9 -2 10 -10l24 -450q-2 -9 -10 -10h-153q-9 2 -10 10l24 450q2 9 10 10h105zM237 477v-126q-2 -9 -10 -10h-138q-9 2 -10 10v126q2 9 10 10h138q9 -2 10 -10z" glyph-name="exclamdown" horiz-adv-x="317" unicode="¡"/>
<glyph d="M230 243q0 -51 8 -75q15 -41 64 -42q44 0 66 39l2 4q5 8 16 3l112 -58q7 -6 4 -14q-35 -73 -124 -100q-18 -6 -37 -9v-78q-2 -9 -10 -10h-79q-9 2 -10 10v80q-119 19 -161 122l-6 16q-14 45 -14 112q0 70 14 113q34 105 147 134l20 4v79q2 9 10 10h79q9 -2 10 -10v-77 q98 -15 148 -87q8 -11 13 -22q2 -9 -4 -14l-112 -58q-12 -4 -16 3q-25 42 -68 43q-50 -1 -64 -42q-8 -25 -8 -76z" glyph-name="cent" unicode="¢"/>
<glyph d="M497 0h-419q-9 2 -10 10v116q1 8 5 13q31 28 34 65q1 8 1 15v38q0 6 -6 6h-34q-9 2 -10 10v96q2 9 10 10h34q6 0 6 6v105q0 134 101 181q45 21 104 21q114 0 166 -79q21 -32 27 -70q0 -10 -8 -12l-129 -27q-9 0 -12 8q-9 41 -42 42q-39 -2 -40 -52v-117q0 -6 6 -6h125 q9 -2 10 -10v-96q-2 -9 -10 -10h-125q-6 0 -6 -6v-27q-1 -60 -29 -89v-2h251q9 -2 10 -10v-119q-2 -9 -10 -10z" glyph-name="sterling" unicode="£"/>
<glyph d="M531 121l-83 -85q-8 -5 -14 0l-61 61q-43 -21 -92 -21q-51 0 -91 21l-60 -60q-7 -5 -14 0l-84 85q-5 7 0 14l60 59q-19 40 -19 89q0 47 19 89l-60 61q-6 7 0 14l83 84q8 5 14 0l61 -61q44 21 91 21q48 0 91 -21l61 61q7 5 14 0l84 -84q5 -7 0 -14l-62 -62q20 -42 20 -88 q0 -47 -19 -89l61 -60q6 -8 0 -14zM281 195q52 0 76 45q11 20 11 44q0 53 -43 78q-21 11 -44 11q-53 0 -76 -46q-10 -20 -10 -43q0 -54 44 -78q19 -11 42 -11z" glyph-name="currency" unicode="¤"/>
<glyph d="M355 0h-147q-9 2 -10 10v112q0 6 -6 6h-112q-9 2 -10 10v62q2 9 10 10h112q6 0 6 6v29q0 6 -6 6h-112q-9 2 -10 10v62q2 9 10 10h87v2l-145 335q-2 8 7 10h156q11 -1 15 -10l82 -237h3l81 237q4 9 15 10h153q9 -1 7 -10l-145 -335v-2h87q9 -2 10 -10v-62q-2 -9 -10 -10 h-112q-6 0 -6 -6v-29q0 -6 6 -6h112q9 -2 10 -10v-62q-2 -9 -10 -10h-112q-6 0 -6 -6v-112q-2 -9 -10 -10z" glyph-name="yen" unicode="¥"/>
<glyph d="M231 388h-125q-9 2 -10 10v332q2 9 10 10h125q9 -2 10 -10v-332q-2 -9 -10 -10zM231 -84h-125q-9 2 -10 10v336q2 9 10 10h125q9 -2 10 -10v-336q-2 -9 -10 -10z" glyph-name="brokenbar" horiz-adv-x="337" unicode="¦"/>
<glyph d="M262 -194q-123 0 -175 81q-19 32 -23 69q0 9 7 11l124 19q9 0 11 -8q7 -47 53 -48q48 6 52 46q0 39 -43 59q-22 10 -54 19q-149 41 -162 168q-1 14 -1 28q1 95 83 148v2q-61 45 -61 127t70 131q53 36 126 36q117 0 169 -79q22 -34 26 -73q0 -9 -7 -11l-122 -18 q-9 0 -11 7q-8 49 -52 50q-42 0 -49 -34q-1 -6 -1 -11q0 -39 54 -61q18 -7 42 -14q148 -43 161 -170q1 -13 1 -26q0 -83 -66 -136q-9 -7 -17 -12v-2q63 -44 63 -133q0 -86 -73 -132q-53 -33 -125 -33zM266 181q49 0 62 46q3 12 3 25q0 54 -43 68q-11 3 -22 3q-51 0 -63 -47 q-3 -12 -3 -24q0 -54 44 -68q11 -3 22 -3z" glyph-name="section" horiz-adv-x="531" unicode="§"/>
<glyph d="M401 550h-108q-9 2 -10 10v110q2 9 10 10h108q9 -2 10 -10v-110q-2 -9 -10 -10zM196 550h-108q-9 2 -10 10v110q2 9 10 10h108q9 -2 10 -10v-110q-2 -9 -10 -10z" glyph-name="dieresis" horiz-adv-x="489" unicode="¨"/>
<glyph d="M397 -13q-153 0 -254 103q-98 101 -98 249q0 154 103 255q101 98 249 98q152 0 253 -102q99 -102 99 -251q0 -153 -103 -254q-101 -98 -249 -98zM397 71q128 0 204 90q62 74 62 178q0 130 -90 207q-73 62 -176 62q-129 0 -205 -91q-61 -74 -61 -178q0 -129 89 -205 q73 -63 177 -63zM404 145q-112 0 -158 79q-9 16 -15 33q-10 30 -10 84q0 55 10 83q29 89 128 108q22 4 45 4q92 0 141 -58q11 -12 17 -25q4 -9 -4 -13l-85 -44q-9 -3 -14 4q-19 30 -51 30q-39 -1 -50 -34q-5 -18 -5 -55q0 -40 5 -56q12 -33 50 -34q34 1 51 31q6 6 14 3 l85 -43q8 -5 4 -14q-30 -58 -106 -77q-25 -6 -52 -6z" glyph-name="copyright" horiz-adv-x="794" unicode="©"/>
<glyph d="M316 392h-87q-9 2 -10 10v14h-2q-25 -30 -80 -30q-71 0 -94 49q-8 18 -8 39q0 73 80 92q24 5 51 5h46q6 0 6 6v5q-2 25 -56 25q-40 0 -67 -18q-9 -4 -14 4l-31 53q-4 9 3 14q51 29 122 29q123 0 145 -66q6 -19 6 -42v-179q-2 -9 -10 -10zM171 461q46 1 47 29v10q0 6 -6 6 h-38q-33 -1 -34 -23q2 -21 31 -22z" glyph-name="ordfeminine" horiz-adv-x="367" unicode="ª"/>
<glyph d="M519 23l-237 234q-5 7 0 14l237 234q6 6 9 -1q1 -2 1 -3v-138q-1 -10 -10 -19l-77 -76q-3 -5 0 -8l77 -76q10 -11 10 -19v-138q0 -8 -7 -6q-2 1 -3 2zM258 23l-236 234q-5 7 0 14l236 234q6 6 9 -1q1 -2 1 -3v-138q-1 -11 -10 -19l-76 -76q-3 -5 0 -8l76 -76 q10 -10 10 -19v-138q0 -8 -7 -6q-2 1 -3 2z" glyph-name="guillemotleft" horiz-adv-x="586" unicode="«"/>
<glyph d="M505 76h-123q-9 2 -10 10v114q0 6 -6 6h-309q-9 2 -10 10v120q2 9 10 10h448q9 -2 10 -10v-250q-2 -9 -10 -10z" glyph-name="logicalnot" unicode="¬"/>
<glyph d="M350 193h-301q-9 2 -10 10v125q2 9 10 10h301q9 -2 10 -10v-125q-2 -9 -10 -10z" glyph-name="uni00AD" horiz-adv-x="400" unicode="­"/>
<glyph d="M218 301q-96 0 -152 72q-41 52 -41 120q0 94 71 150q52 41 122 41q95 0 152 -71q42 -52 42 -120q0 -95 -72 -151q-53 -41 -122 -41zM218 342q82 0 124 64q25 38 25 87q0 84 -64 126q-38 24 -85 24q-81 0 -123 -63q-25 -38 -25 -87q0 -85 65 -127q37 -24 83 -24zM190 388 h-50q-6 2 -7 7v198q2 6 7 7h93q71 0 81 -54q2 -8 2 -16q-1 -42 -37 -61l37 -74q0 -6 -5 -7h-55q-7 1 -10 7l-30 65h-15q-3 -2 -4 -4v-61q-2 -6 -7 -7zM227 509q24 2 25 21q-2 19 -25 20h-26q-3 -2 -4 -4v-32q2 -4 4 -5h26z" glyph-name="registered" horiz-adv-x="437" unicode="®"/>
<glyph d="M395 562h-301q-9 2 -10 10v91q2 9 10 10h301q9 -2 10 -10v-91q-2 -9 -10 -10z" glyph-name="macron" horiz-adv-x="489" unicode="¯"/>
<glyph d="M203 378q-83 0 -128 64q-30 41 -30 94q0 83 64 128q41 30 94 30q82 0 129 -63q30 -42 30 -95q0 -82 -64 -128q-42 -30 -95 -30zM203 475q42 0 56 37q4 12 4 24q0 43 -37 58q-11 4 -23 4q-41 0 -55 -38q-4 -12 -4 -24q0 -44 37 -57q11 -4 22 -4z" glyph-name="degree" horiz-adv-x="407" unicode="°"/>
<glyph d="M343 184h-124q-9 2 -10 10v147q0 6 -6 6h-146q-9 2 -10 10v119q2 9 10 10h146q6 0 6 6v147q2 9 10 10h124q9 -2 10 -10v-147q0 -6 6 -6h146q9 -2 10 -10v-119q-2 -9 -10 -10h-146q-6 0 -6 -6v-147q-2 -9 -10 -10zM505 0h-448q-9 2 -10 10v120q2 9 10 10h448q9 -2 10 -10 v-120q-2 -9 -10 -10z" glyph-name="plusminus" unicode="±"/>
<glyph d="M322 430h-277q-9 2 -10 10v76q1 12 8 18l146 137q22 24 23 45q-4 29 -31 31q-31 0 -35 -34v-2q-3 -9 -11 -9l-91 13q-8 3 -9 11q3 65 64 97q39 20 89 20q86 0 124 -57q20 -30 20 -69q0 -56 -51 -104l-3 -3l-84 -78v-1h128q9 -2 10 -10v-81q-2 -9 -10 -10z" glyph-name="twosuperior" horiz-adv-x="366" unicode="²"/>
<glyph d="M184 423q-105 0 -141 68q-9 16 -12 34q0 10 8 12l90 14q9 0 13 -7q14 -24 38 -25q33 5 36 35q-2 34 -43 35h-13q-9 2 -10 10v74q2 9 10 10h13q31 0 35 26q1 3 1 6q-2 31 -32 32q-24 -1 -34 -23q-4 -8 -12 -7l-90 14q-8 3 -8 11q14 69 87 92q29 9 62 9q101 0 135 -64 q12 -23 12 -50q-1 -51 -45 -82v-1q48 -32 52 -94q0 -80 -72 -113q-35 -16 -80 -16z" glyph-name="threesuperior" horiz-adv-x="366" unicode="³"/>
<glyph d="M246 546h-116q-8 2 -5 10l80 136q7 10 17 10h139q9 0 7 -7q-1 -2 -2 -3l-103 -136q-8 -10 -17 -10z" glyph-name="acute" horiz-adv-x="489" unicode="´"/>
<glyph d="M600 -180h-114q-9 2 -10 10v730q0 6 -6 6h-68q-6 0 -6 -6v-730q-2 -9 -10 -10h-113q-9 2 -10 10v386q-111 7 -171 91q-42 61 -42 141q0 122 89 186q64 46 157 46h304q9 -2 10 -10v-840q-2 -9 -10 -10z" glyph-name="paragraph" horiz-adv-x="678" unicode="¶"/>
<glyph d="M201 186h-139q-9 2 -10 10v138q2 9 10 10h139q9 -2 10 -10v-138q-2 -9 -10 -10z" glyph-name="periodcentered" horiz-adv-x="263" unicode="·"/>
<glyph d="M276 -166h-115q-9 2 -7 10l62 156q5 9 14 10h101q9 -2 7 -10l-46 -156q-4 -9 -16 -10z" glyph-name="cedilla" horiz-adv-x="489" unicode="¸"/>
<glyph d="M268 430h-102q-9 2 -10 10v270h-2l-66 -38q-8 -3 -10 6v97q1 10 9 15l62 40q11 6 17 6h102q9 -2 10 -10v-386q-2 -9 -10 -10z" glyph-name="onesuperior" horiz-adv-x="366" unicode="¹"/>
<glyph d="M194 383q-119 1 -149 90q-8 27 -8 63q0 38 8 63q32 89 149 90q115 0 146 -85q1 -3 2 -5q8 -27 8 -63q0 -38 -8 -63q-36 -87 -148 -90zM194 473q27 1 37 26q3 12 3 37q0 27 -3 37q-11 25 -37 26q-28 -1 -38 -26q-3 -12 -3 -37q0 -27 3 -37q11 -25 38 -26z" glyph-name="ordmasculine" horiz-adv-x="387" unicode="º"/>
<glyph d="M328 23q-6 -6 -9 1q-1 2 -1 3v138q1 11 10 19l76 76q3 5 0 8l-76 76q-10 10 -10 19v138q0 8 7 6q2 -1 3 -2l236 -234q5 -7 0 -14zM67 23q-6 -6 -9 1q-1 2 -1 3v138q1 10 10 19l77 76q3 5 0 8l-77 76q-10 11 -10 19v138q0 8 7 6q2 -1 3 -2l236 -234q5 -7 0 -14z" glyph-name="guillemotright" horiz-adv-x="586" unicode="»"/>
<glyph d="M274 274h-102q-9 2 -10 10v270h-2l-66 -38q-8 -3 -10 6v97q1 10 9 15l62 40q11 6 17 6h102q9 -2 10 -10v-386q-2 -9 -10 -10zM784 0h-93q-9 2 -10 10v36q0 6 -6 6h-166q-9 2 -10 10v85q0 11 4 18l107 231q5 9 15 10h107q9 -1 7 -10l-111 -241v-2h47q6 0 6 6v57q2 9 10 10 h93q9 -2 10 -10v-57q2 -5 5 -6h14q9 -2 10 -10v-81q-2 -9 -10 -10h-13q-6 0 -6 -6v-36q-2 -9 -10 -10zM287 -12h-102q-8 1 -4 10l395 684q7 10 16 10h102q8 -1 4 -10l-395 -684q-7 -10 -16 -10z" glyph-name="onequarter" horiz-adv-x="908" unicode="¼"/>
<glyph d="M274 274h-102q-9 2 -10 10v270h-2l-66 -38q-8 -3 -10 6v97q1 10 9 15l62 40q11 6 17 6h102q9 -2 10 -10v-386q-2 -9 -10 -10zM840 0h-277q-9 2 -10 10v76q1 12 8 18l146 137q22 24 23 45q-4 29 -31 31q-31 0 -35 -34v-2q-3 -9 -11 -9l-91 13q-8 3 -9 11q3 65 64 97 q39 20 89 20q86 0 124 -57q20 -30 20 -69q0 -56 -51 -104l-3 -3l-84 -78v-1h128q9 -2 10 -10v-81q-2 -9 -10 -10zM287 -12h-102q-8 1 -4 10l395 684q7 10 16 10h102q8 -1 4 -10l-395 -684q-7 -10 -16 -10z" glyph-name="onehalf" horiz-adv-x="934" unicode="½"/>
<glyph d="M846 0h-93q-9 2 -10 10v36q0 6 -6 6h-166q-9 2 -10 10v85q0 11 4 18l107 231q5 9 15 10h107q9 -1 7 -10l-111 -241v-2h47q6 0 6 6v57q2 9 10 10h93q9 -2 10 -10v-57q2 -5 5 -6h14q9 -2 10 -10v-81q-2 -9 -10 -10h-13q-6 0 -6 -6v-36q-2 -9 -10 -10zM350 -12h-102 q-8 1 -4 10l395 684q7 10 16 10h102q8 -1 4 -10l-395 -684q-7 -10 -16 -10zM237 267q-105 0 -141 68q-9 16 -12 34q0 10 8 12l90 14q9 0 13 -7q14 -24 38 -25q33 5 36 35q-2 34 -43 35h-13q-9 2 -10 10v74q2 9 10 10h13q31 0 35 26q1 3 1 6q-2 31 -32 32q-24 -1 -34 -23 q-4 -8 -12 -7l-90 14q-8 3 -8 11q14 69 87 92q29 9 62 9q101 0 135 -64q12 -23 12 -50q-1 -51 -45 -82v-1q48 -32 52 -94q0 -80 -72 -113q-35 -16 -80 -16z" glyph-name="threequarters" horiz-adv-x="970" unicode="¾"/>
<glyph d="M318 277q9 -2 10 -10v-41q-1 -49 -31 -84l-60 -71q-43 -48 -44 -80q0 -40 34 -52q11 -4 22 -4q52 2 65 61q3 8 11 8l129 -18q9 -3 8 -11q-14 -108 -105 -155q-49 -25 -112 -25q-113 0 -175 75q-40 50 -40 113q0 69 56 132q6 7 12 13l53 64q21 26 21 58v17q2 9 10 10h136z M328 477v-126q-2 -9 -10 -10h-138q-9 2 -10 10v126q2 9 10 10h138q9 -2 10 -10z" glyph-name="questiondown" horiz-adv-x="483" unicode="¿"/>
<glyph d="M10 10l235 660q5 9 13 10h163q9 -1 13 -10l230 -660q1 -9 -7 -10h-165q-9 1 -13 10l-32 105h-221l-32 -105q-5 -9 -13 -10h-164q-9 2 -7 10zM271 261h132l-63 212h-3zM400 747h-115q-12 1 -20 9l-128 123q-5 7 2 9q2 1 3 1h142q10 -1 18 -10l102 -122q5 -8 -4 -10z" glyph-name="Agrave" horiz-adv-x="674" unicode="À"/>
<glyph d="M10 10l235 660q5 9 13 10h163q9 -1 13 -10l230 -660q1 -9 -7 -10h-165q-9 1 -13 10l-32 105h-221l-32 -105q-5 -9 -13 -10h-164q-9 2 -7 10zM271 261h132l-63 212h-3zM392 747h-115q-8 0 -6 7q1 2 2 3l102 122q9 9 18 10h142q9 0 7 -7q-1 -2 -2 -3l-128 -123 q-10 -9 -20 -9z" glyph-name="Aacute" horiz-adv-x="674" unicode="Á"/>
<glyph d="M10 10l235 660q5 9 13 10h163q9 -1 13 -10l230 -660q1 -9 -7 -10h-165q-9 1 -13 10l-32 105h-221l-32 -105q-5 -9 -13 -10h-164q-9 2 -7 10zM271 261h132l-63 212h-3zM504 741h-95q-14 1 -23 10l-48 50h-2l-49 -50q-11 -10 -23 -10h-95q-8 0 -6 7q1 2 2 3l108 137 q8 10 19 10h90q12 -1 19 -10l108 -137q5 -7 -2 -9q-2 -1 -3 -1z" glyph-name="Acircumflex" horiz-adv-x="674" unicode="Â"/>
<glyph d="M10 10l235 660q5 9 13 10h163q9 -1 13 -10l230 -660q1 -9 -7 -10h-165q-9 1 -13 10l-32 105h-221l-32 -105q-5 -9 -13 -10h-164q-9 2 -7 10zM271 261h132l-63 212h-3zM405 740q-38 0 -83 23q-37 18 -60 18q-34 -1 -76 -33q-8 -5 -10 4v81q1 13 9 22q38 36 81 37 q37 0 84 -24q38 -17 60 -17q34 1 75 32q9 5 11 -3v-81q-1 -14 -10 -22q-38 -36 -81 -37z" glyph-name="Atilde" horiz-adv-x="674" unicode="Ã"/>
<glyph d="M10 10l235 660q5 9 13 10h163q9 -1 13 -10l230 -660q1 -9 -7 -10h-165q-9 1 -13 10l-32 105h-221l-32 -105q-5 -9 -13 -10h-164q-9 2 -7 10zM271 261h132l-63 212h-3zM493 750h-107q-9 2 -10 10v110q2 9 10 10h107q9 -2 10 -10v-110q-2 -9 -10 -10zM287 750h-107 q-9 2 -10 10v110q2 9 10 10h107q9 -2 10 -10v-110q-2 -9 -10 -10z" glyph-name="Adieresis" horiz-adv-x="674" unicode="Ä"/>
<glyph d="M10 10l235 660q5 9 13 10h163q9 -1 13 -10l230 -660q1 -9 -7 -10h-165q-9 1 -13 10l-32 105h-221l-32 -105q-5 -9 -13 -10h-164q-9 2 -7 10zM271 261h132l-63 212h-3zM336 704q-65 0 -97 52q-17 28 -17 62q0 65 53 97q28 16 61 16q66 0 99 -53q16 -27 16 -60 q0 -66 -54 -98q-28 -16 -61 -16zM336 773q31 0 41 29q3 8 3 16q0 31 -28 41q-8 3 -16 3q-30 0 -40 -28q-3 -8 -3 -16q0 -32 28 -42q8 -3 15 -3z" glyph-name="Aring" horiz-adv-x="674" unicode="Å"/>
<glyph d="M884 0h-445q-9 2 -10 10v99q0 6 -6 6h-178l-45 -105q-5 -9 -14 -10h-168q-10 2 -7 10l303 660q6 9 14 10h556q9 -2 10 -10v-129q-2 -9 -10 -10h-273q-6 0 -6 -6v-103q0 -6 6 -6h224q9 -2 10 -10v-126q-2 -9 -10 -10h-224q-6 0 -6 -6v-109q0 -6 6 -6h273q9 -2 10 -10v-129 q-2 -9 -10 -10zM426 531l-117 -270h114q6 0 6 6v264h-3z" glyph-name="AE" horiz-adv-x="931" unicode="Æ"/>
<glyph d="M307 -166h-115q-9 2 -7 10l59 149q-141 26 -185 163q-19 59 -20 164v20q0 119 18 177q1 4 2 7q46 143 197 165q24 3 50 3q153 0 223 -112q12 -21 21 -43q3 -10 -5 -14l-133 -58q-10 -2 -14 6q-28 58 -77 63q-6 1 -12 1q-63 -1 -82 -59q-10 -32 -10 -136q0 -106 10 -136 q20 -58 82 -59q56 0 85 56l4 8q6 9 14 6l133 -58q8 -5 5 -14q-45 -119 -170 -147q-7 -2 -13 -3l-44 -149q-4 -9 -16 -10z" glyph-name="Ccedilla" horiz-adv-x="574" unicode="Ç"/>
<glyph d="M367 747h-115q-12 1 -20 9l-128 123q-5 7 2 9q2 1 3 1h142q10 -1 18 -10l102 -122q5 -8 -4 -10zM55 10v660q2 9 10 10h445q9 -2 10 -10v-129q-2 -9 -10 -10h-273q-6 0 -6 -6v-103q0 -6 6 -6h224q9 -2 10 -10v-126q-2 -9 -10 -10h-224q-6 0 -6 -6v-109q0 -6 6 -6h273 q9 -2 10 -10v-129q-2 -9 -10 -10h-445q-9 2 -10 10z" glyph-name="Egrave" horiz-adv-x="557" unicode="È"/>
<glyph d="M310 747h-115q-8 0 -6 7q1 2 2 3l102 122q9 9 18 10h142q9 0 7 -7q-1 -2 -2 -3l-128 -123q-10 -9 -20 -9zM55 10v660q2 9 10 10h445q9 -2 10 -10v-129q-2 -9 -10 -10h-273q-6 0 -6 -6v-103q0 -6 6 -6h224q9 -2 10 -10v-126q-2 -9 -10 -10h-224q-6 0 -6 -6v-109q0 -6 6 -6 h273q9 -2 10 -10v-129q-2 -9 -10 -10h-445q-9 2 -10 10z" glyph-name="Eacute" horiz-adv-x="557" unicode="É"/>
<glyph d="M55 10v660q2 9 10 10h445q9 -2 10 -10v-129q-2 -9 -10 -10h-273q-6 0 -6 -6v-103q0 -6 6 -6h224q9 -2 10 -10v-126q-2 -9 -10 -10h-224q-6 0 -6 -6v-109q0 -6 6 -6h273q9 -2 10 -10v-129q-2 -9 -10 -10h-445q-9 2 -10 10zM456 741h-95q-14 1 -23 10l-48 50h-2l-49 -50 q-11 -10 -23 -10h-95q-8 0 -6 7q1 2 2 3l108 137q8 10 19 10h90q12 -1 19 -10l108 -137q5 -7 -2 -9q-2 -1 -3 -1z" glyph-name="Ecircumflex" horiz-adv-x="557" unicode="Ê"/>
<glyph d="M443 750h-107q-9 2 -10 10v110q2 9 10 10h107q9 -2 10 -10v-110q-2 -9 -10 -10zM237 750h-107q-9 2 -10 10v110q2 9 10 10h107q9 -2 10 -10v-110q-2 -9 -10 -10zM55 10v660q2 9 10 10h445q9 -2 10 -10v-129q-2 -9 -10 -10h-273q-6 0 -6 -6v-103q0 -6 6 -6h224 q9 -2 10 -10v-126q-2 -9 -10 -10h-224q-6 0 -6 -6v-109q0 -6 6 -6h273q9 -2 10 -10v-129q-2 -9 -10 -10h-445q-9 2 -10 10z" glyph-name="Edieresis" horiz-adv-x="557" unicode="Ë"/>
<glyph d="M55 10v660q2 9 10 10h156q9 -2 10 -10v-660q-2 -9 -10 -10h-156q-9 2 -10 10zM209 747h-115q-12 1 -20 9l-128 123q-5 7 2 9q2 1 3 1h142q10 -1 18 -10l102 -122q5 -8 -4 -10z" glyph-name="Igrave" horiz-adv-x="286" unicode="Ì"/>
<glyph d="M55 10v660q2 9 10 10h156q9 -2 10 -10v-660q-2 -9 -10 -10h-156q-9 2 -10 10zM194 747h-115q-8 0 -6 7q1 2 2 3l102 122q9 9 18 10h142q9 0 7 -7q-1 -2 -2 -3l-128 -123q-10 -9 -20 -9z" glyph-name="Iacute" horiz-adv-x="286" unicode="Í"/>
<glyph d="M55 10v660q2 9 10 10h156q9 -2 10 -10v-660q-2 -9 -10 -10h-156q-9 2 -10 10zM311 741h-95q-14 1 -23 10l-48 50h-2l-49 -50q-11 -10 -23 -10h-95q-8 0 -6 7q1 2 2 3l108 137q8 10 19 10h90q12 -1 19 -10l108 -137q5 -7 -2 -9q-2 -1 -3 -1z" glyph-name="Icircumflex" horiz-adv-x="286" unicode="Î"/>
<glyph d="M55 10v660q2 9 10 10h156q9 -2 10 -10v-660q-2 -9 -10 -10h-156q-9 2 -10 10zM300 750h-107q-9 2 -10 10v110q2 9 10 10h107q9 -2 10 -10v-110q-2 -9 -10 -10zM94 750h-107q-9 2 -10 10v110q2 9 10 10h107q9 -2 10 -10v-110q-2 -9 -10 -10z" glyph-name="Idieresis" horiz-adv-x="286" unicode="Ï"/>
<glyph d="M328 0h-263q-9 2 -10 10v266q0 6 -6 6h-25q-9 2 -10 10v102q2 9 10 10h25q6 0 6 6v260q2 9 10 10h263q176 0 234 -132q4 -12 8 -23q20 -71 20 -185q0 -123 -20 -185q-45 -140 -209 -154q-16 -1 -33 -1zM290 156q79 0 104 46q5 9 8 19q10 35 10 119q0 86 -10 119 q-18 55 -81 63q-15 2 -31 2h-53q-6 0 -6 -6v-108q0 -6 6 -6h70q9 -2 10 -10v-102q-2 -9 -10 -10h-70q-6 0 -6 -6v-114q0 -6 6 -6h53z" glyph-name="Eth" horiz-adv-x="631" unicode="Ð"/>
<glyph d="M395 740q-38 0 -83 23q-37 18 -60 18q-34 -1 -76 -33q-8 -5 -10 4v81q1 13 9 22q38 36 81 37q37 0 84 -24q38 -17 60 -17q34 1 75 32q9 5 11 -3v-81q-1 -14 -10 -22q-38 -36 -81 -37zM55 10v660q2 9 10 10h147q12 -1 17 -10l205 -385h4v385q2 9 10 10h140q9 -2 10 -10 v-660q-2 -9 -10 -10h-147q-12 1 -17 10l-203 384h-6v-384q-2 -9 -10 -10h-140q-9 2 -10 10z" glyph-name="Ntilde" horiz-adv-x="653" unicode="Ñ"/>
<glyph d="M385 747h-115q-12 1 -20 9l-128 123q-5 7 2 9q2 1 3 1h142q10 -1 18 -10l102 -122q5 -8 -4 -10zM314 -12q-144 0 -217 95q-25 32 -38 72q-19 63 -20 170v15q0 117 18 177q1 5 2 8q38 116 158 153q46 14 97 14q144 0 217 -95q25 -32 38 -72q19 -59 20 -161v-24 q0 -118 -16 -173l-4 -12q-38 -116 -158 -153q-46 -14 -97 -14zM314 145q68 1 87 60q10 30 10 135q0 106 -10 135q-20 59 -87 60q-68 -1 -87 -60q-10 -30 -10 -135q0 -106 10 -135q20 -59 87 -60z" glyph-name="Ograve" horiz-adv-x="628" unicode="Ò"/>
<glyph d="M357 747h-115q-8 0 -6 7q1 2 2 3l102 122q9 9 18 10h142q9 0 7 -7q-1 -2 -2 -3l-128 -123q-10 -9 -20 -9zM314 -12q-144 0 -217 95q-25 32 -38 72q-19 63 -20 170v15q0 117 18 177q1 5 2 8q38 116 158 153q46 14 97 14q144 0 217 -95q25 -32 38 -72q19 -59 20 -161v-24 q0 -118 -16 -173l-4 -12q-38 -116 -158 -153q-46 -14 -97 -14zM314 145q68 1 87 60q10 30 10 135q0 106 -10 135q-20 59 -87 60q-68 -1 -87 -60q-10 -30 -10 -135q0 -106 10 -135q20 -59 87 -60z" glyph-name="Oacute" horiz-adv-x="628" unicode="Ó"/>
<glyph d="M314 -12q-144 0 -217 95q-25 32 -38 72q-19 63 -20 170v15q0 117 18 177q1 5 2 8q38 116 158 153q46 14 97 14q144 0 217 -95q25 -32 38 -72q19 -59 20 -161v-24q0 -118 -16 -173l-4 -12q-38 -116 -158 -153q-46 -14 -97 -14zM314 145q68 1 87 60q10 30 10 135 q0 106 -10 135q-20 59 -87 60q-68 -1 -87 -60q-10 -30 -10 -135q0 -106 10 -135q20 -59 87 -60zM481 741h-95q-14 1 -23 10l-48 50h-2l-49 -50q-11 -10 -23 -10h-95q-8 0 -6 7q1 2 2 3l108 137q8 10 19 10h90q12 -1 19 -10l108 -137q5 -7 -2 -9q-2 -1 -3 -1z" glyph-name="Ocircumflex" horiz-adv-x="628" unicode="Ô"/>
<glyph d="M382 740q-38 0 -83 23q-37 18 -60 18q-34 -1 -76 -33q-8 -5 -10 4v81q1 13 9 22q38 36 81 37q37 0 84 -24q38 -17 60 -17q34 1 75 32q9 5 11 -3v-81q-1 -14 -10 -22q-38 -36 -81 -37zM314 -12q-144 0 -217 95q-25 32 -38 72q-19 63 -20 170v15q0 117 18 177q1 5 2 8 q38 116 158 153q46 14 97 14q144 0 217 -95q25 -32 38 -72q19 -59 20 -161v-24q0 -118 -16 -173l-4 -12q-38 -116 -158 -153q-46 -14 -97 -14zM314 145q68 1 87 60q10 30 10 135q0 106 -10 135q-20 59 -87 60q-68 -1 -87 -60q-10 -30 -10 -135q0 -106 10 -135q20 -59 87 -60 z" glyph-name="Otilde" horiz-adv-x="628" unicode="Õ"/>
<glyph d="M470 750h-107q-9 2 -10 10v110q2 9 10 10h107q9 -2 10 -10v-110q-2 -9 -10 -10zM264 750h-107q-9 2 -10 10v110q2 9 10 10h107q9 -2 10 -10v-110q-2 -9 -10 -10zM314 -12q-144 0 -217 95q-25 32 -38 72q-19 63 -20 170v15q0 117 18 177q1 5 2 8q38 116 158 153 q46 14 97 14q144 0 217 -95q25 -32 38 -72q19 -59 20 -161v-24q0 -118 -16 -173l-4 -12q-38 -116 -158 -153q-46 -14 -97 -14zM314 145q68 1 87 60q10 30 10 135q0 106 -10 135q-20 59 -87 60q-68 -1 -87 -60q-10 -30 -10 -135q0 -106 10 -135q20 -59 87 -60z" glyph-name="Odieresis" horiz-adv-x="628" unicode="Ö"/>
<glyph d="M497 141l-81 -81q-7 -7 -14 0l-117 117q-5 3 -8 0l-118 -117q-7 -7 -14 0l-80 80q-5 7 0 14l116 117q5 5 0 9l-116 117q-5 7 0 14l81 82q7 5 14 0l117 -118q5 -3 9 0l117 118q7 5 14 0l80 -81q7 -7 0 -14l-116 -117q-3 -5 0 -8l116 -118q7 -7 0 -14z" glyph-name="multiply" unicode="×"/>
<glyph d="M129 -30h-102q-8 1 -5 10l70 109q-21 29 -33 66q-19 63 -20 170v15q0 117 18 177q1 5 2 8q38 116 158 153q46 14 97 14q80 0 142 -32l26 40q8 9 17 10h101q7 0 7 -6q0 -2 -1 -4l-70 -110q22 -33 33 -65q19 -59 20 -161v-24q0 -118 -16 -173l-4 -12q-38 -116 -158 -153 q-46 -14 -97 -14q-80 0 -142 32l-26 -40q-8 -9 -17 -10zM314 145q68 1 87 60q10 30 10 135q0 106 -10 135q-20 59 -87 60q-68 -1 -87 -60q-10 -30 -10 -135q0 -106 10 -135q20 -59 87 -60z" glyph-name="Oslash" horiz-adv-x="628" unicode="Ø"/>
<glyph d="M395 747h-115q-12 1 -20 9l-128 123q-5 7 2 9q2 1 3 1h142q10 -1 18 -10l102 -122q5 -8 -4 -10zM324 -12q-169 0 -236 120q-35 65 -35 155v407q2 9 10 10h156q9 -2 10 -10v-418q0 -79 58 -101q18 -6 37 -6q72 0 90 69q4 18 4 38v418q2 9 10 10h156q9 -2 10 -10v-407 q0 -175 -124 -242q-62 -33 -146 -33z" glyph-name="Ugrave" horiz-adv-x="647" unicode="Ù"/>
<glyph d="M371 747h-115q-8 0 -6 7q1 2 2 3l102 122q9 9 18 10h142q9 0 7 -7q-1 -2 -2 -3l-128 -123q-10 -9 -20 -9zM324 -12q-169 0 -236 120q-35 65 -35 155v407q2 9 10 10h156q9 -2 10 -10v-418q0 -79 58 -101q18 -6 37 -6q72 0 90 69q4 18 4 38v418q2 9 10 10h156q9 -2 10 -10 v-407q0 -175 -124 -242q-62 -33 -146 -33z" glyph-name="Uacute" horiz-adv-x="647" unicode="Ú"/>
<glyph d="M324 -12q-169 0 -236 120q-35 65 -35 155v407q2 9 10 10h156q9 -2 10 -10v-418q0 -79 58 -101q18 -6 37 -6q72 0 90 69q4 18 4 38v418q2 9 10 10h156q9 -2 10 -10v-407q0 -175 -124 -242q-62 -33 -146 -33zM490 741h-95q-14 1 -23 10l-48 50h-2l-49 -50q-11 -10 -23 -10 h-95q-8 0 -6 7q1 2 2 3l108 137q8 10 19 10h90q12 -1 19 -10l108 -137q5 -7 -2 -9q-2 -1 -3 -1z" glyph-name="Ucircumflex" horiz-adv-x="647" unicode="Û"/>
<glyph d="M480 750h-107q-9 2 -10 10v110q2 9 10 10h107q9 -2 10 -10v-110q-2 -9 -10 -10zM274 750h-107q-9 2 -10 10v110q2 9 10 10h107q9 -2 10 -10v-110q-2 -9 -10 -10zM324 -12q-169 0 -236 120q-35 65 -35 155v407q2 9 10 10h156q9 -2 10 -10v-418q0 -79 58 -101q18 -6 37 -6 q72 0 90 69q4 18 4 38v418q2 9 10 10h156q9 -2 10 -10v-407q0 -175 -124 -242q-62 -33 -146 -33z" glyph-name="Udieresis" horiz-adv-x="647" unicode="Ü"/>
<glyph d="M379 0h-156q-9 2 -10 10v253l-206 406q-1 10 8 11h157q10 -1 16 -10l114 -232h3l112 232q5 9 16 10h154q10 -2 8 -11l-206 -406v-253q-2 -9 -10 -10zM352 747h-115q-8 0 -6 7q1 2 2 3l102 122q9 9 18 10h142q9 0 7 -7q-1 -2 -2 -3l-128 -123q-10 -9 -20 -9z" glyph-name="Yacute" horiz-adv-x="602" unicode="Ý"/>
<glyph d="M221 0h-156q-9 2 -10 10v660q2 9 10 10h156q9 -2 10 -10v-87q0 -6 6 -6h100q160 0 222 -106q30 -52 30 -120q0 -124 -93 -185q-64 -42 -159 -42h-100q-6 0 -6 -6v-108q-2 -9 -10 -10zM327 273q67 0 82 52q4 13 4 26q0 59 -56 74q-14 3 -30 3h-90q-6 0 -6 -6v-143 q0 -6 6 -6h90z" glyph-name="Thorn" horiz-adv-x="612" unicode="Þ"/>
<glyph d="M328 -5h-40q-9 2 -10 10v110q2 9 10 10h24q50 1 62 39q5 17 5 64q0 49 -5 66q-15 40 -67 41h-17q-9 2 -10 10v108q2 9 10 10h25q52 2 53 48q-2 46 -70 47q-70 0 -78 -58q-1 -9 -1 -18v-472q-2 -9 -10 -10h-146q-9 2 -10 10v470q0 186 187 209q27 3 57 3q160 0 214 -90 q21 -36 21 -81q-1 -79 -57 -117v-2q42 -23 59 -71q10 -33 10 -107q0 -87 -12 -124q-29 -88 -146 -102q-27 -3 -58 -3z" glyph-name="germandbls" horiz-adv-x="579" unicode="ß"/>
<glyph d="M472 0h-138q-9 2 -10 10v28h-1q-44 -50 -131 -50q-95 0 -136 65q-22 36 -22 85q0 113 113 147q42 13 94 13h77q6 0 6 6v13q0 36 -34 45q-22 6 -60 6q-65 0 -105 -28q-9 -4 -13 3l-52 92q-3 10 3 16q71 48 189 48q163 0 208 -79q22 -40 22 -103v-307q-2 -9 -10 -10z M248 108q75 1 76 52v30q0 6 -6 6h-59q-67 -1 -68 -46q2 -41 57 -42zM360 546h-116q-10 1 -17 10l-103 136q-5 7 2 9q2 1 3 1h139q11 -1 17 -10l80 -136q3 -9 -5 -10z" glyph-name="agrave" horiz-adv-x="532" unicode="à"/>
<glyph d="M472 0h-138q-9 2 -10 10v28h-1q-44 -50 -131 -50q-95 0 -136 65q-22 36 -22 85q0 113 113 147q42 13 94 13h77q6 0 6 6v13q0 36 -34 45q-22 6 -60 6q-65 0 -105 -28q-9 -4 -13 3l-52 92q-3 10 3 16q71 48 189 48q163 0 208 -79q22 -40 22 -103v-307q-2 -9 -10 -10z M248 108q75 1 76 52v30q0 6 -6 6h-59q-67 -1 -68 -46q2 -41 57 -42zM315 546h-116q-8 2 -5 10l80 136q7 10 17 10h139q9 0 7 -7q-1 -2 -2 -3l-103 -136q-8 -10 -17 -10z" glyph-name="aacute" horiz-adv-x="532" unicode="á"/>
<glyph d="M472 0h-138q-9 2 -10 10v28h-1q-44 -50 -131 -50q-95 0 -136 65q-22 36 -22 85q0 113 113 147q42 13 94 13h77q6 0 6 6v13q0 36 -34 45q-22 6 -60 6q-65 0 -105 -28q-9 -4 -13 3l-52 92q-3 10 3 16q71 48 189 48q163 0 208 -79q22 -40 22 -103v-307q-2 -9 -10 -10z M248 108q75 1 76 52v30q0 6 -6 6h-59q-67 -1 -68 -46q2 -41 57 -42zM433 544h-95q-14 1 -23 10l-49 50h-2l-48 -50q-11 -10 -23 -10h-95q-9 0 -7 7q1 2 2 3l109 137q8 10 18 10h91q11 -1 18 -10l109 -137q5 -7 -2 -9q-2 -1 -3 -1z" glyph-name="acircumflex" horiz-adv-x="532" unicode="â"/>
<glyph d="M472 0h-138q-9 2 -10 10v28h-1q-44 -50 -131 -50q-95 0 -136 65q-22 36 -22 85q0 113 113 147q42 13 94 13h77q6 0 6 6v13q0 36 -34 45q-22 6 -60 6q-65 0 -105 -28q-9 -4 -13 3l-52 92q-3 10 3 16q71 48 189 48q163 0 208 -79q22 -40 22 -103v-307q-2 -9 -10 -10z M248 108q75 1 76 52v30q0 6 -6 6h-59q-67 -1 -68 -46q2 -41 57 -42zM335 545q-38 0 -83 23q-37 18 -60 18q-32 0 -74 -31q-1 -1 -2 -1q-8 -5 -10 3v81q1 14 9 22q38 36 81 37q39 0 84 -23q37 -18 60 -18q35 1 75 33q10 5 11 -4v-81q-1 -14 -10 -22q-38 -36 -81 -37z" glyph-name="atilde" horiz-adv-x="532" unicode="ã"/>
<glyph d="M472 0h-138q-9 2 -10 10v28h-1q-44 -50 -131 -50q-95 0 -136 65q-22 36 -22 85q0 113 113 147q42 13 94 13h77q6 0 6 6v13q0 36 -34 45q-22 6 -60 6q-65 0 -105 -28q-9 -4 -13 3l-52 92q-3 10 3 16q71 48 189 48q163 0 208 -79q22 -40 22 -103v-307q-2 -9 -10 -10z M248 108q75 1 76 52v30q0 6 -6 6h-59q-67 -1 -68 -46q2 -41 57 -42zM421 550h-108q-9 2 -10 10v110q2 9 10 10h108q9 -2 10 -10v-110q-2 -9 -10 -10zM216 550h-108q-9 2 -10 10v110q2 9 10 10h108q9 -2 10 -10v-110q-2 -9 -10 -10z" glyph-name="adieresis" horiz-adv-x="532" unicode="ä"/>
<glyph d="M472 0h-138q-9 2 -10 10v28h-1q-44 -50 -131 -50q-95 0 -136 65q-22 36 -22 85q0 113 113 147q42 13 94 13h77q6 0 6 6v13q0 36 -34 45q-22 6 -60 6q-65 0 -105 -28q-9 -4 -13 3l-52 92q-3 10 3 16q71 48 189 48q163 0 208 -79q22 -40 22 -103v-307q-2 -9 -10 -10z M248 108q75 1 76 52v30q0 6 -6 6h-59q-67 -1 -68 -46q2 -41 57 -42zM267 518q-65 0 -97 52q-17 28 -17 62q0 66 53 98q28 16 61 16q66 0 99 -53q16 -28 16 -61q0 -66 -54 -98q-28 -16 -61 -16zM267 587q31 0 41 29q3 8 3 16q0 32 -28 42q-8 3 -16 3q-30 0 -40 -29 q-3 -8 -3 -16q0 -32 28 -42q8 -3 15 -3z" glyph-name="aring" horiz-adv-x="532" unicode="å"/>
<glyph d="M562 -12q-96 0 -154 57q-6 6 -11 12h-1q-54 -69 -183 -69q-142 0 -172 98q-7 24 -7 52q0 113 113 147q42 13 94 13h77q6 0 6 6v13q0 36 -34 45q-22 6 -60 6q-65 0 -105 -28q-9 -4 -13 3l-52 92q-3 10 3 16q71 48 189 48q103 0 164 -43h2q55 43 134 43q158 0 211 -118 q5 -11 9 -23q15 -46 15 -152q-2 -9 -10 -10h-289q-6 0 -6 -6q0 -12 4 -20q22 -51 94 -53q59 1 109 39q8 6 14 0l72 -73q5 -7 -1 -15q-84 -80 -212 -80zM620 298q6 0 6 6q0 17 -5 30q-14 43 -67 44q-53 -1 -68 -44q-4 -12 -4 -30q0 -6 6 -6h132zM248 108q75 1 76 52v30 q0 6 -6 6h-59q-67 -1 -68 -46q2 -41 57 -42z" glyph-name="ae" horiz-adv-x="819" unicode="æ"/>
<glyph d="M258 -166h-115q-9 2 -7 10l60 151q-105 30 -141 112q-5 12 -9 24q-14 40 -14 112q0 74 14 113q34 106 146 135q34 8 71 8q112 0 176 -73q16 -19 26 -39q2 -9 -4 -14l-112 -58q-11 -5 -15 3q-28 41 -66 43q-44 -1 -59 -42q-7 -22 -7 -76t7 -75q16 -41 59 -42q40 0 63 38 q2 3 3 5q5 8 15 3l112 -58q7 -6 4 -14q-38 -75 -128 -101q-10 -3 -19 -5l-44 -150q-4 -9 -16 -10z" glyph-name="ccedilla" horiz-adv-x="493" unicode="ç"/>
<glyph d="M275 -12q-154 0 -212 107q-9 18 -15 36q-16 47 -16 112q0 67 15 113q35 107 147 135q34 8 71 8q153 0 208 -110q7 -15 12 -31q16 -49 16 -152q-2 -9 -11 -10h-289q-6 0 -6 -6q2 -14 4 -20q15 -48 82 -53h12q61 1 109 39q9 6 15 0l71 -73q7 -7 -1 -15q-84 -80 -212 -80z M201 298h132q6 0 6 6q0 20 -4 30q-15 43 -68 44q-53 -1 -68 -44q-4 -17 -4 -30q0 -6 6 -6zM338 546h-116q-10 1 -17 10l-103 136q-5 7 2 9q2 1 3 1h139q11 -1 17 -10l80 -136q3 -9 -5 -10z" glyph-name="egrave" horiz-adv-x="533" unicode="è"/>
<glyph d="M309 546h-116q-8 2 -5 10l80 136q7 10 17 10h139q9 0 7 -7q-1 -2 -2 -3l-103 -136q-8 -10 -17 -10zM275 -12q-154 0 -212 107q-9 18 -15 36q-16 47 -16 112q0 67 15 113q35 107 147 135q34 8 71 8q153 0 208 -110q7 -15 12 -31q16 -49 16 -152q-2 -9 -11 -10h-289 q-6 0 -6 -6q2 -14 4 -20q15 -48 82 -53h12q61 1 109 39q9 6 15 0l71 -73q7 -7 -1 -15q-84 -80 -212 -80zM201 298h132q6 0 6 6q0 20 -4 30q-15 43 -68 44q-53 -1 -68 -44q-4 -17 -4 -30q0 -6 6 -6z" glyph-name="eacute" horiz-adv-x="533" unicode="é"/>
<glyph d="M433 544h-95q-14 1 -23 10l-49 50h-2l-48 -50q-11 -10 -23 -10h-95q-9 0 -7 7q1 2 2 3l109 137q8 10 18 10h91q11 -1 18 -10l109 -137q5 -7 -2 -9q-2 -1 -3 -1zM275 -12q-154 0 -212 107q-9 18 -15 36q-16 47 -16 112q0 67 15 113q35 107 147 135q34 8 71 8 q153 0 208 -110q7 -15 12 -31q16 -49 16 -152q-2 -9 -11 -10h-289q-6 0 -6 -6q2 -14 4 -20q15 -48 82 -53h12q61 1 109 39q9 6 15 0l71 -73q7 -7 -1 -15q-84 -80 -212 -80zM201 298h132q6 0 6 6q0 20 -4 30q-15 43 -68 44q-53 -1 -68 -44q-4 -17 -4 -30q0 -6 6 -6z" glyph-name="ecircumflex" horiz-adv-x="533" unicode="ê"/>
<glyph d="M422 550h-108q-9 2 -10 10v110q2 9 10 10h108q9 -2 10 -10v-110q-2 -9 -10 -10zM217 550h-108q-9 2 -10 10v110q2 9 10 10h108q9 -2 10 -10v-110q-2 -9 -10 -10zM275 -12q-154 0 -212 107q-9 18 -15 36q-16 47 -16 112q0 67 15 113q35 107 147 135q34 8 71 8 q153 0 208 -110q7 -15 12 -31q16 -49 16 -152q-2 -9 -11 -10h-289q-6 0 -6 -6q2 -14 4 -20q15 -48 82 -53h12q61 1 109 39q9 6 15 0l71 -73q7 -7 -1 -15q-84 -80 -212 -80zM201 298h132q6 0 6 6q0 20 -4 30q-15 43 -68 44q-53 -1 -68 -44q-4 -17 -4 -30q0 -6 6 -6z" glyph-name="edieresis" horiz-adv-x="533" unicode="ë"/>
<glyph d="M211 0h-148q-9 2 -10 10v467q2 9 10 10h148q9 -2 10 -10v-467q-2 -9 -10 -10zM199 546h-116q-10 1 -17 10l-103 136q-5 7 2 9q2 1 3 1h139q11 -1 17 -10l80 -136q3 -9 -5 -10z" glyph-name="igrave" horiz-adv-x="274" unicode="ì"/>
<glyph d="M193 546h-116q-8 2 -5 10l80 136q7 10 17 10h139q9 0 7 -7q-1 -2 -2 -3l-103 -136q-8 -10 -17 -10zM211 0h-148q-9 2 -10 10v467q2 9 10 10h148q9 -2 10 -10v-467q-2 -9 -10 -10z" glyph-name="iacute" horiz-adv-x="274" unicode="í"/>
<glyph d="M305 544h-95q-14 1 -23 10l-49 50h-2l-48 -50q-11 -10 -23 -10h-95q-9 0 -7 7q1 2 2 3l109 137q8 10 18 10h91q11 -1 18 -10l109 -137q5 -7 -2 -9q-2 -1 -3 -1zM211 0h-148q-9 2 -10 10v467q2 9 10 10h148q9 -2 10 -10v-467q-2 -9 -10 -10z" glyph-name="icircumflex" horiz-adv-x="274" unicode="î"/>
<glyph d="M294 550h-108q-9 2 -10 10v110q2 9 10 10h108q9 -2 10 -10v-110q-2 -9 -10 -10zM89 550h-108q-9 2 -10 10v110q2 9 10 10h108q9 -2 10 -10v-110q-2 -9 -10 -10zM211 0h-148q-9 2 -10 10v467q2 9 10 10h148q9 -2 10 -10v-467q-2 -9 -10 -10z" glyph-name="idieresis" horiz-adv-x="274" unicode="ï"/>
<glyph d="M423 566l-55 -17l23 -31q90 -123 108 -210q8 -37 8 -77q0 -53 -14 -98q-33 -102 -140 -133q-39 -12 -84 -12q-139 0 -200 93q-14 21 -22 45q-15 49 -15 93q0 52 14 97q30 92 115 118q27 8 57 8q39 0 67 -18h2l-61 83l-98 -29q-10 0 -13 7l-21 73q-2 10 7 13l64 19l-58 80 q-5 7 2 9q2 1 3 1h148q12 -1 19 -9l28 -39l88 26q10 0 13 -7l22 -72q0 -10 -7 -13zM269 125q48 1 62 42q6 22 6 52q0 31 -6 52q-15 41 -61 42q-48 -1 -62 -42q-7 -25 -7 -52q0 -28 7 -52q15 -41 61 -42z" glyph-name="eth" horiz-adv-x="538" unicode="ð"/>
<glyph d="M498 0h-148q-9 2 -10 10v278q-5 68 -59 71q-49 0 -58 -52q-2 -9 -2 -19v-278q-2 -9 -10 -10h-148q-9 2 -10 10v467q2 9 10 10h148q9 -2 10 -10v-35h1q40 56 125 57q121 0 152 -111q9 -32 9 -71v-307q-2 -9 -10 -10zM347 545q-38 0 -83 23q-37 18 -60 18q-32 0 -74 -31 q-1 -1 -2 -1q-8 -5 -10 3v81q1 14 9 22q38 36 81 37q39 0 84 -23q37 -18 60 -18q35 1 75 33q10 5 11 -4v-81q-1 -14 -10 -22q-38 -36 -81 -37z" glyph-name="ntilde" horiz-adv-x="558" unicode="ñ"/>
<glyph d="M269 -12q-134 0 -196 88q-17 25 -26 53q-15 50 -15 114q0 66 15 115q33 103 146 132q36 9 76 9q137 0 198 -92q15 -23 24 -49q15 -50 15 -115t-15 -114q-35 -106 -151 -133q-34 -8 -71 -8zM269 126q45 1 60 41q7 27 7 76q0 52 -7 77q-16 40 -60 41q-45 -1 -60 -41 q-7 -27 -7 -77q0 -51 7 -76q16 -40 60 -41zM338 546h-116q-10 1 -17 10l-103 136q-5 7 2 9q2 1 3 1h139q11 -1 17 -10l80 -136q3 -9 -5 -10z" glyph-name="ograve" horiz-adv-x="538" unicode="ò"/>
<glyph d="M317 546h-116q-8 2 -5 10l80 136q7 10 17 10h139q9 0 7 -7q-1 -2 -2 -3l-103 -136q-8 -10 -17 -10zM269 -12q-134 0 -196 88q-17 25 -26 53q-15 50 -15 114q0 66 15 115q33 103 146 132q36 9 76 9q137 0 198 -92q15 -23 24 -49q15 -50 15 -115t-15 -114 q-35 -106 -151 -133q-34 -8 -71 -8zM269 126q45 1 60 41q7 27 7 76q0 52 -7 77q-16 40 -60 41q-45 -1 -60 -41q-7 -27 -7 -77q0 -51 7 -76q16 -40 60 -41z" glyph-name="oacute" horiz-adv-x="538" unicode="ó"/>
<glyph d="M436 544h-95q-14 1 -23 10l-49 50h-2l-48 -50q-11 -10 -23 -10h-95q-9 0 -7 7q1 2 2 3l109 137q8 10 18 10h91q11 -1 18 -10l109 -137q5 -7 -2 -9q-2 -1 -3 -1zM269 -12q-134 0 -196 88q-17 25 -26 53q-15 50 -15 114q0 66 15 115q33 103 146 132q36 9 76 9 q137 0 198 -92q15 -23 24 -49q15 -50 15 -115t-15 -114q-35 -106 -151 -133q-34 -8 -71 -8zM269 126q45 1 60 41q7 27 7 76q0 52 -7 77q-16 40 -60 41q-45 -1 -60 -41q-7 -27 -7 -77q0 -51 7 -76q16 -40 60 -41z" glyph-name="ocircumflex" horiz-adv-x="538" unicode="ô"/>
<glyph d="M269 -12q-134 0 -196 88q-17 25 -26 53q-15 50 -15 114q0 66 15 115q33 103 146 132q36 9 76 9q137 0 198 -92q15 -23 24 -49q15 -50 15 -115t-15 -114q-35 -106 -151 -133q-34 -8 -71 -8zM269 126q45 1 60 41q7 27 7 76q0 52 -7 77q-16 40 -60 41q-45 -1 -60 -41 q-7 -27 -7 -77q0 -51 7 -76q16 -40 60 -41zM337 545q-38 0 -83 23q-37 18 -60 18q-32 0 -74 -31q-1 -1 -2 -1q-8 -5 -10 3v81q1 14 9 22q38 36 81 37q39 0 84 -23q37 -18 60 -18q35 1 75 33q10 5 11 -4v-81q-1 -14 -10 -22q-38 -36 -81 -37z" glyph-name="otilde" horiz-adv-x="538" unicode="õ"/>
<glyph d="M424 550h-108q-9 2 -10 10v110q2 9 10 10h108q9 -2 10 -10v-110q-2 -9 -10 -10zM219 550h-108q-9 2 -10 10v110q2 9 10 10h108q9 -2 10 -10v-110q-2 -9 -10 -10zM269 -12q-134 0 -196 88q-17 25 -26 53q-15 50 -15 114q0 66 15 115q33 103 146 132q36 9 76 9 q137 0 198 -92q15 -23 24 -49q15 -50 15 -115t-15 -114q-35 -106 -151 -133q-34 -8 -71 -8zM269 126q45 1 60 41q7 27 7 76q0 52 -7 77q-16 40 -60 41q-45 -1 -60 -41q-7 -27 -7 -77q0 -51 7 -76q16 -40 60 -41z" glyph-name="odieresis" horiz-adv-x="538" unicode="ö"/>
<glyph d="M281 389q-49 0 -74 42q-11 20 -11 42q0 50 43 74q20 11 42 11q51 0 75 -43q10 -20 10 -42q0 -49 -42 -73q-20 -11 -43 -11zM505 206h-448q-9 2 -10 10v120q2 9 10 10h448q9 -2 10 -10v-120q-2 -9 -10 -10zM281 -6q-49 0 -74 42q-11 20 -11 43q0 49 43 73q20 11 42 11 q50 0 74 -42q11 -20 11 -42q0 -51 -43 -75q-20 -10 -42 -10z" glyph-name="divide" unicode="÷"/>
<glyph d="M269 -12q-67 0 -118 24l-24 -32q-8 -10 -19 -10h-82q-8 0 -6 7q1 2 2 3l62 82q-26 31 -37 67q-15 50 -15 114q0 66 15 115q33 103 146 132q36 9 76 9q67 0 118 -24l24 32q8 10 19 10h81q8 -1 5 -10l-62 -83q22 -26 37 -66q15 -50 15 -115t-15 -114q-35 -106 -151 -133 q-34 -8 -71 -8zM269 126q45 1 60 41q7 27 7 76q0 52 -7 77q-16 40 -60 41q-45 -1 -60 -41q-7 -27 -7 -77q0 -51 7 -76q16 -40 60 -41z" glyph-name="oslash" horiz-adv-x="538" unicode="ø"/>
<glyph d="M492 0h-148q-9 2 -10 10v35h-1q-43 -56 -124 -57q-123 0 -152 115q-8 31 -8 67v307q2 9 10 10h148q9 -2 10 -10v-278q0 -63 48 -70q6 -1 11 -1q51 0 57 57q1 7 1 14v278q2 9 10 10h148q9 -2 10 -10v-467q-2 -9 -10 -10zM347 546h-116q-10 1 -17 10l-103 136q-5 7 2 9 q2 1 3 1h139q11 -1 17 -10l80 -136q3 -9 -5 -10z" glyph-name="ugrave" horiz-adv-x="555" unicode="ù"/>
<glyph d="M324 546h-116q-8 2 -5 10l80 136q7 10 17 10h139q9 0 7 -7q-1 -2 -2 -3l-103 -136q-8 -10 -17 -10zM492 0h-148q-9 2 -10 10v35h-1q-43 -56 -124 -57q-123 0 -152 115q-8 31 -8 67v307q2 9 10 10h148q9 -2 10 -10v-278q0 -63 48 -70q6 -1 11 -1q51 0 57 57q1 7 1 14v278 q2 9 10 10h148q9 -2 10 -10v-467q-2 -9 -10 -10z" glyph-name="uacute" horiz-adv-x="555" unicode="ú"/>
<glyph d="M445 544h-95q-14 1 -23 10l-49 50h-2l-48 -50q-11 -10 -23 -10h-95q-9 0 -7 7q1 2 2 3l109 137q8 10 18 10h91q11 -1 18 -10l109 -137q5 -7 -2 -9q-2 -1 -3 -1zM492 0h-148q-9 2 -10 10v35h-1q-43 -56 -124 -57q-123 0 -152 115q-8 31 -8 67v307q2 9 10 10h148 q9 -2 10 -10v-278q0 -63 48 -70q6 -1 11 -1q51 0 57 57q1 7 1 14v278q2 9 10 10h148q9 -2 10 -10v-467q-2 -9 -10 -10z" glyph-name="ucircumflex" horiz-adv-x="555" unicode="û"/>
<glyph d="M433 550h-108q-9 2 -10 10v110q2 9 10 10h108q9 -2 10 -10v-110q-2 -9 -10 -10zM228 550h-108q-9 2 -10 10v110q2 9 10 10h108q9 -2 10 -10v-110q-2 -9 -10 -10zM492 0h-148q-9 2 -10 10v35h-1q-43 -56 -124 -57q-123 0 -152 115q-8 31 -8 67v307q2 9 10 10h148 q9 -2 10 -10v-278q0 -63 48 -70q6 -1 11 -1q51 0 57 57q1 7 1 14v278q2 9 10 10h148q9 -2 10 -10v-467q-2 -9 -10 -10z" glyph-name="udieresis" horiz-adv-x="555" unicode="ü"/>
<glyph d="M133 -180h-37q-9 2 -10 10v118q2 9 10 10h25q44 0 58 35l2 6l11 31l-183 447q-2 8 7 10h157q8 -1 12 -10l84 -244h2l78 244q5 9 13 10h153q9 -1 7 -10l-211 -532q-34 -87 -90 -111q-34 -14 -88 -14zM318 546h-116q-8 2 -5 10l80 136q7 10 17 10h139q9 0 7 -7q-1 -2 -2 -3 l-103 -136q-8 -10 -17 -10z" glyph-name="yacute" horiz-adv-x="531" unicode="ý"/>
<glyph d="M211 -180h-148q-9 2 -10 10v840q2 9 10 10h148q9 -2 10 -10v-229h1q39 57 125 58q122 -1 161 -117q17 -56 17 -139t-17 -138q-40 -116 -161 -117q-87 1 -125 58h-1v-216q-2 -9 -10 -10zM288 126q45 1 60 41q7 24 7 76q0 55 -7 77q-16 40 -60 41q-45 -1 -59 -41 q-8 -23 -8 -77q0 -55 8 -76q14 -40 59 -41z" glyph-name="thorn" horiz-adv-x="557" unicode="þ"/>
</font>
</defs>
</svg>
